<?xml version="1.0" encoding="UTF-8" standalone="no"?>
<!-- Created with Inkscape (http://www.inkscape.org/) -->

<svg
   width="31.510967"
   height="24.782928"
   viewBox="0 0 31.510967 24.782928"
   version="1.1"
   id="svg1"
   inkscape:export-filename="coffeslogo.svg"
   inkscape:export-xdpi="94.445038"
   inkscape:export-ydpi="94.445038"
   sodipodi:docname="coffeslogov2.svg"
   inkscape:version="1.3.2 (091e20e, 2023-11-25, custom)"
   xmlns:inkscape="http://www.inkscape.org/namespaces/inkscape"
   xmlns:sodipodi="http://sodipodi.sourceforge.net/DTD/sodipodi-0.dtd"
   xmlns="http://www.w3.org/2000/svg"
   xmlns:svg="http://www.w3.org/2000/svg">
  <sodipodi:namedview
     id="namedview1"
     pagecolor="#ffffff"
     bordercolor="#999999"
     borderopacity="1"
     inkscape:showpageshadow="2"
     inkscape:pageopacity="0"
     inkscape:pagecheckerboard="0"
     inkscape:deskcolor="#d1d1d1"
     inkscape:document-units="px"
     inkscape:zoom="16"
     inkscape:cx="11.875"
     inkscape:cy="16.03125"
     inkscape:window-width="1920"
     inkscape:window-height="1017"
     inkscape:window-x="-8"
     inkscape:window-y="-8"
     inkscape:window-maximized="1"
     inkscape:current-layer="layer3" />
  <defs
     id="defs1" />
  <g
     inkscape:label="Layer 1"
     inkscape:groupmode="layer"
     id="layer1"
     transform="translate(-0.36132813,-4.2030396)">
    <g
       transform="matrix(0.01113057,0,0,-0.0132757,-0.75140534,29.654706)"
       fill="#000000"
       stroke="none"
       id="g11">
      <path
         id="path1"
         d="m 1113.333,1917.1555 c -71.9219,0.094 -129.27757,-0.8395 -158.27755,-3.0895 -205.99979,-17 -388.99313,-38.1126 -487.99303,-58.1126 -128.99987,-26.9999 -239.12219,-71.9565 -258.12217,-106.9564 -23.99997,-45 7.97624,-361.0019 55.97619,-567.0017 C 315.91639,969.99554 427.00482,750.07 529.00472,657.07009 554.0047,635.07011 564.95792,618.02352 557.95792,616.02352 550.95793,614.02353 496.98653,605.045 438.98659,597.04501 312.98672,578.04502 188.99588,539.94766 136.99593,504.9477 101.99597,480.94772 99.970933,475.97389 99.970933,426.97394 c 0,-44.99996 4.075857,-57.03347 28.075827,-80.03345 78.99992,-75.99992 329.96593,-144.87476 699.96556,-192.87472 187.99978,-24.99997 746.94638,-30.00416 951.94618,-10.00418 370.9996,36.99997 616.0543,98.86853 705.0543,177.86845 30.9999,25.99997 34.9193,36.09108 34.9193,77.09104 0,52.99994 -16.9295,75.01618 -84.9294,109.01614 -77.9999,38.99996 -361.9871,101.95437 -457.987,101.95437 h -40.0081 l 47.0271,43.98897 c 44.9999,40.99996 50.8846,44.02091 123.8846,50.02091 233.9997,20.99997 468.102,134.97427 593.1019,289.97411 98.9999,121.99992 149.9076,252.98412 150.9076,383.98402 2,187.9998 -78.9449,290.9846 -247.9447,314.9845 -85.9999,12 -180.9617,-0.9848 -244.9616,-33.9848 -21,-9.9999 -40.0609,-18.9785 -41.0609,-18.9785 -2,0 -1,23.021 0,50.0209 1.7834,20.0632 1.7174,32.29 -0.8774,42.5178 -1.3462,2.7329 -2.251,5.6073 -2.9831,8.533 -0.047,0.099 -0.1274,0.1954 -0.1754,0.2942 -4.2538,8.7524 -11.1062,16.6264 -22.9871,27.6586 -57,53 -229.8937,95.9649 -515.8934,126.9649 -99.7499,11.2499 -445.9468,20.904 -661.7122,21.1853 z m 95.1068,-31.1895 c 214.16,-1.1328 463.4805,-9.1632 566.6054,-21.0382 265.9997,-29 445.9063,-71.901 492.9063,-114.901 28,-27 28.0867,-34.9654 -4.9133,-57.9654 -210.9998,-146.9998 -1370.09607,-179.0804 -1868.09557,-52.0806 -95.9999,25 -159.85676,58.0356 -159.85676,85.0356 0,60.9999 273.87116,124.9177 664.87077,154.9176 64.12493,4.875 179.98726,6.7117 308.48316,6.032 z m -988.44469,-206.9983 32.9891,-18.9785 c 16.99998,-10 61.03713,-27.9869 97.03709,-38.9869 426.99957,-135.9999 1678.9284,-111.9554 1907.9282,36.0445 13,8 26.1287,12.0042 29.1287,10.0042 6.9999,-7 -14.1646,-212.0486 -33.1646,-327.0485 -71,-423.99954 -243.9554,-708.05963 -473.9551,-776.05956 -170.9999,-50.99995 -454.0255,-78.99732 -648.0253,-63.99733 -120.9999,8.99999 -297.89915,37.99526 -369.89908,58.99524 -21.99998,6.99999 -29.97014,6.11727 -25.97015,-0.88273 9,-14.99998 -31.14082,-0.98742 -89.14076,30.01255 -65.99993,35.99996 -182.83703,161.98942 -235.83698,255.98932 -51.99995,91.99991 -113.02823,261.90091 -140.0282,395.90071 -23.99998,110.9999 -51.06292,324.0757 -51.06292,392.0756 z m 2295.55009,-12.3581 c 55.5468,-0.4687 133.2389,-9.6267 162.4889,-21.6267 168.9998,-70.9999 193.9401,-334.9102 51.9403,-558.91 -48,-75.9999 -163.9089,-188.0983 -243.9088,-235.09825 -98.9999,-58.99994 -311.0129,-120.93289 -412.0128,-120.93289 -23,0 -23.1206,0.90158 10.8794,45.90153 19,24.99998 35.0948,50.023 35.0948,55.023 0,4.99999 16.9024,8.97433 37.9023,8.97433 55,0 147.1162,25.99737 228.1162,63.99734 88.9999,41.99995 198.9657,144.07264 264.9656,244.07254 117.9999,178.9999 111.9091,328.9563 -15.0908,387.9563 -95.9999,44.9999 -195.883,21.0303 -289.8829,-67.9696 l -45.9742,-43.989 5.9661,85.0356 c 5,70.9999 9.9004,88.9842 27.9004,102.9842 21,17 86.9923,41.9334 135.9923,51.9334 11,2 27.1076,2.8045 45.6232,2.6482 z m 34.042,-138.4402 c 17.3125,-0.5937 34.4139,-3.6215 51.4138,-9.1215 47,-15.9999 87.9673,-56.0418 98.9673,-100.0418 37,-135.9998 -130.942,-389.0557 -320.9418,-485.0556 -65.9999,-32.99997 -169.0085,-63.99733 -216.0084,-63.99733 -22,0 -21.981,0.11467 7.0189,63.11461 37,81.99992 84.8806,240.99722 103.8806,344.99712 17,88.9999 45.0053,135.8727 113.0052,187.8726 57,43.5 110.7269,64.0131 162.6644,62.2319 z m -630.6534,-935.09664 161.0851,-27.07014 c 301.9997,-49.99995 438.9938,-106.00935 404.9939,-163.00929 -18,-30.99997 -151.0356,-88.93083 -263.0355,-115.9308 -117.9999,-28.99997 -186.9162,-40.99736 -366.916,-63.99733 -141.9999,-17.99999 -716,-26.06385 -869.9998,-12.06387 -353.99965,31.99997 -640.98181,90.94968 -779.98168,160.94961 -55.99994,27.99997 -75.10284,47.00154 -75.10284,74.00151 0,42.99996 110.97795,85.02246 324.97774,124.02242 132.99987,23.99998 145.00444,24.02772 196.00439,-3.97225 23.99998,-12.99999 68.03712,-29.04448 97.03709,-36.04447 49.99995,-11.99999 51.94029,-12.93141 51.94029,-46.93138 0,-50.99995 14.0311,-70.09524 67.03105,-87.09522 83.99991,-27.99997 203.06186,-39.98688 393.06166,-38.98688 190.9998,0 309.8862,11.98691 392.8861,38.98688 53,16.99998 67.0311,36.09527 67.0311,87.09522 0,32.99997 2.0799,34.90155 48.0798,45.90154 26,6.99999 69.9674,24.10417 98.9673,38.10415 z M 1679.4119,508.6257 c 9.2812,0.375 9.7954,-6.65863 7.5454,-27.65861 -5,-42.99996 -14.8766,-50.93976 -83.8766,-66.93974 -194.9998,-44.99996 -612.06247,-36.08111 -745.06234,16.91883 -22.99997,8.99999 -28.07583,18.04869 -28.07583,46.04866 0,31.99997 1.98711,34.98269 22.98709,28.9827 12.99999,-3 70.09604,-12.92094 128.09598,-21.92093 187.9998,-28.99997 523.9278,-18.07903 685.9276,21.92093 5.25,1.5 9.3649,2.52316 12.4587,2.64816 z M 143.48847,371.50958 c 6.74999,-0.51562 22.5345,-7.00733 40.53448,-17.50731 23.99998,-12.99999 75.98832,-34.99108 115.98828,-48.99107 142.99985,-48.99995 352.9497,-87.96066 619.94944,-116.96064 163.99983,-16.99998 726.08873,-16.99998 875.08853,0 322.9997,37.99997 514.0234,80.001 638.0233,143.00094 31.9999,15.99998 55.9403,24.97851 51.9403,18.97852 -12,-19.99998 -122.0953,-69.0099 -211.0952,-94.00988 C 1779.9181,116.02028 929.0268,120.02447 380.02734,266.02432 284.02744,291.0243 139.97899,353.0384 139.97899,370.03838 c 0,1.25 1.25948,1.64308 3.50948,1.4712 z" />
      <path
         id="path2"
         d="m 1795.0492,1456.9632 c -0.7931,-0.755 -1.59,-3.4317 -2.2811,-7.6503 1.7973,2.3912 2.3485,5.0011 2.2811,7.6503 z m -4.7378,-224.7998 c -1.58,-0.6046 -3.2848,-1.1367 -4.9132,-1.6184 -0.4192,-0.1367 -0.8087,-0.294 -1.2284,-0.4413 -0.3991,-8.3811 -0.6438,-14.0115 -0.8773,-20.3026 1.0522,-1.7479 2.0362,-3.5072 2.983,-5.2964 1.048,7.0104 2.1227,14.5165 3.685,25.4518 0.094,0.7023 0.2571,1.4953 0.3509,2.2069 z" />
      <path
         id="path3"
         d="m 1747.4958,955.13582 c -2.7832,-0.76538 -12.2083,-20.92094 -21.5833,-48.10834 -10.0483,-29.37183 -23.0285,-57.45773 -38.7798,-84.15281 0.3219,0.0733 0.7254,0.0944 1.0529,0.14712 1.6279,0.28398 3.2781,0.63415 4.9133,0.88272 1.9567,0.34725 3.9895,0.62662 5.9661,0.88272 0.1805,0.0268 0.3461,0.12356 0.5264,0.14712 29.1802,54.11705 55.8541,122.63102 48.4308,130.05435 -0.125,0.125 -0.3409,0.19815 -0.5264,0.14712 z" />
      <path
         d="m 2475,1464 c -96,-54 -133,-105 -156,-221 -11,-54 -36,-145 -55,-202 -19,-57 -32,-106 -30,-108 13,-13 41,21 53,63 40,146 73,279 73,296 0,29 53,91 107,127 50,33 98,40 150,20 l 28,-10 -22,22 c -29,29 -106,36 -148,13 z"
         id="path4" />
      <path
         d="m 2010,516 c 0,-3 18,-10 40,-16 22,-6 52,-21 67,-34 24,-21 26,-26 14,-40 -20,-24 -74,-47 -166,-72 -44,-13 -70,-23 -58,-23 31,-1 172,45 211,69 45,28 40,57 -13,87 -42,23 -95,39 -95,29 z"
         id="path5" />
      <path
         d="m 483,486 -28,-24 23,-25 c 13,-14 46,-35 73,-46 57,-25 169,-55 176,-47 3,2 -12,8 -33,12 -66,11 -168,55 -193,82 l -23,26 28,23 c 16,13 24,23 17,23 -7,0 -25,-11 -40,-24 z"
         id="path6" />
      <path
         d="m 1735,310 c -34,-6 -36,-7 -10,-8 17,0 48,3 70,7 33,7 35,9 10,8 -16,0 -48,-3 -70,-7 z"
         id="path7" />
      <path
         d="m 1228,283 c 68,-2 176,-2 240,0 64,1 9,3 -123,3 -132,0 -185,-2 -117,-3 z"
         id="path8" />
      <path
         d="m 2840,1611 c 139,-200 48,-534 -203,-748 -119,-101 -323,-187 -473,-200 -41,-3 -74,-9 -74,-14 0,-16 117,-14 190,3 376,90 651,393 651,716 0,109 -26,188 -83,246 l -39,41 z"
         id="path10" />
      <path
         d="m 2550,483 c 0,-6 5,-15 10,-18 18,-11 12,-115 -9,-149 -26,-41 -107,-89 -206,-121 -77,-25 -273,-67 -365,-79 -25,-3 -88,-11 -140,-18 -63,-8 -226,-13 -485,-13 -345,1 -409,3 -558,23 -283,38 -512,93 -622,151 -63,33 -75,37 -50,16 92,-76 354,-151 660,-189 554,-70 1227,-34 1578,83 104,34 164,68 206,116 27,31 31,43 31,95 0,48 -4,64 -25,87 -13,15 -25,23 -25,16 z"
         id="path11" />
    </g>
    <path
       id="text1"
       style="font-size:6px;fill:#ff6600;stroke-width:0.878506"
       d="m 5.359375,12.574219 -1.921875,3.830078 0.4824219,0.242187 0.7460937,-1.486328 0.5644532,-0.146484 0.4394531,2.509766 0.5683593,0.285156 -0.4921874,-2.953125 2.3535156,-0.90625 -0.5625,-0.28125 -1.6171875,0.638672 -0.515625,0.197265 c -0.1718216,0.06595 -0.3415192,0.13343 -0.5097657,0.201172 l 0.9472657,-1.888672 z m 16.675781,0.453125 c -0.05701,-2.91e-4 -0.114165,0.0034 -0.171875,0.01172 -0.227737,0.03085 -0.448199,0.132232 -0.662109,0.306641 -0.22011,0.179464 -0.371658,0.390914 -0.453125,0.632813 -0.07837,0.239369 -0.08382,0.494486 -0.01758,0.765625 0.06934,0.268609 0.215065,0.539687 0.4375,0.8125 0.224962,0.27591 0.464783,0.468754 0.720703,0.580078 0.256492,0.105696 0.515274,0.134492 0.773437,0.08398 0.261266,-0.05303 0.50853,-0.177038 0.744141,-0.369141 0.170508,-0.139019 0.306946,-0.271382 0.408203,-0.40039 0.103785,-0.125908 0.195736,-0.270251 0.277344,-0.429688 L 23.800779,14.66406 c -0.08471,0.161965 -0.176661,0.309299 -0.27539,0.441407 -0.09816,0.12648 -0.226659,0.253901 -0.384766,0.382812 -0.248011,0.202213 -0.501459,0.287821 -0.759766,0.25586 -0.257732,-0.03759 -0.504016,-0.195599 -0.740234,-0.472657 l 1.707031,-1.390625 -0.201172,-0.246093 c -0.184517,-0.226311 -0.387224,-0.389121 -0.607422,-0.488282 -0.164716,-0.07859 -0.33288,-0.118268 -0.503906,-0.11914 z m -2.568359,0.117187 -0.146485,0.07031 -0.002,0.002 c -0.01162,0.008 -0.02333,0.01595 -0.03516,0.02344 -0.01719,0.01067 -0.03465,0.02215 -0.05273,0.03125 -0.01682,0.0087 -0.03337,0.01604 -0.05078,0.02344 -0.01877,0.0088 -0.03903,0.01654 -0.05859,0.02344 -0.01866,0.0073 -0.03727,0.01639 -0.05664,0.02149 h -0.002 l -0.07227,0.03516 0.05273,0.111328 c 0.006,0.01147 0.01139,0.02369 0.01758,0.03516 0.0031,0.006 0.0067,0.01163 0.0098,0.01758 0.02262,0.04371 0.04485,0.08767 0.06445,0.132813 l 0.0039,0.0098 0.412109,0.849609 c 0.02619,0.05398 0.06655,0.124767 0.119141,0.214844 0.05445,0.08473 0.0948,0.150274 0.121094,0.195312 l -0.0332,0.01563 c -0.147586,-0.07511 -0.311983,-0.119881 -0.496093,-0.132812 -0.180512,-0.01468 -0.382343,0.03237 -0.605469,0.140625 -0.35988,0.174602 -0.588034,0.442667 -0.683594,0.804687 -0.09371,0.356678 -0.02025,0.784618 0.220703,1.28125 0.240952,0.496635 0.530991,0.817689 0.869141,0.964844 0.336404,0.143556 0.683089,0.127717 1.042969,-0.04687 0.226724,-0.109999 0.392093,-0.242225 0.49414,-0.398438 0.102048,-0.15621 0.166353,-0.316204 0.19336,-0.480468 l 0.02148,-0.01172 0.259766,0.355469 0.382812,-0.185547 z m 2.466797,0.34961 c 0.05138,-2.82e-4 0.103098,0.0058 0.154297,0.01953 0.202264,0.05185 0.391425,0.182343 0.566406,0.390625 l -1.269531,1.035156 c -0.160291,-0.240904 -0.235108,-0.468592 -0.22461,-0.683594 0.01107,-0.220627 0.113285,-0.411069 0.308594,-0.570312 0.155782,-0.127015 0.310702,-0.190563 0.464844,-0.191405 z M 8.3984375,13.841797 c -0.039557,4.7e-4 -0.077454,0.0074 -0.1152344,0.02344 -0.074189,0.02829 -0.1321146,0.09806 -0.171875,0.207032 -0.038389,0.105215 -0.03913,0.194404 -0.00195,0.267578 0.037171,0.07317 0.097018,0.124134 0.1796875,0.154297 0.075154,0.02742 0.1510028,0.02421 0.2265625,-0.0078 0.079318,-0.03067 0.139345,-0.09791 0.1777344,-0.203125 0.03976,-0.108973 0.038401,-0.198744 -0.00391,-0.269531 -0.037171,-0.07317 -0.094768,-0.12297 -0.1699219,-0.150391 -0.041334,-0.01508 -0.081536,-0.02195 -0.1210937,-0.02148 z m 8.2968745,0.636719 c -0.019,0.0016 -0.03736,0.0064 -0.05664,0.01172 -0.08483,0.0234 -0.148454,0.06874 -0.191406,0.138672 -0.04402,0.06608 -0.05037,0.155753 -0.01953,0.267578 0.02978,0.10797 0.07962,0.180718 0.152344,0.21875 0.07273,0.03803 0.151495,0.04488 0.236328,0.02149 0.07712,-0.02127 0.138689,-0.06678 0.181641,-0.136719 0.04681,-0.071 0.05517,-0.159609 0.02539,-0.267578 -0.03084,-0.111825 -0.08463,-0.185637 -0.160157,-0.21875 -0.05455,-0.02853 -0.110951,-0.03999 -0.167969,-0.03516 z m -5.605468,0.03711 -0.470703,4.535156 0.375,0.03906 0.15039,-0.394532 0.04102,0.0039 c 0.07825,0.136839 0.192184,0.259113 0.341797,0.367187 0.149612,0.108074 0.350919,0.175076 0.601562,0.201172 0.393871,0.04101 0.726364,-0.06513 0.998047,-0.318359 0.271684,-0.253227 0.435025,-0.654096 0.492188,-1.203125 0.05716,-0.549032 -0.02027,-0.973654 -0.234375,-1.273438 -0.209714,-0.303345 -0.514261,-0.476156 -0.91211,-0.517578 -0.250643,-0.0261 -0.460239,-7.2e-4 -0.628906,0.07422 -0.168667,0.07494 -0.306521,0.17504 -0.412109,0.300781 l -0.0293,-0.002 c 0.015,-0.06681 0.0309,-0.158477 0.04687,-0.273437 0.02038,-0.118527 0.0367,-0.245591 0.05078,-0.38086 l 0.115234,-1.103516 z m 4.302734,0.337891 c -0.108557,4.75e-4 -0.222505,0.0071 -0.339844,0.01953 -0.266496,0.02832 -0.497778,0.09754 -0.695312,0.207031 -0.193557,0.109067 -0.339482,0.250442 -0.4375,0.425781 -0.09844,0.171364 -0.135425,0.370934 -0.111328,0.597657 0.03509,0.330138 0.15416,0.580475 0.357422,0.751953 0.207236,0.171055 0.499088,0.303693 0.875,0.396484 0.268264,0.06401 0.478788,0.128955 0.630859,0.197266 0.155626,0.06391 0.268081,0.141347 0.337891,0.230469 0.06981,0.08912 0.112157,0.202583 0.126953,0.341796 0.0224,0.210813 -0.04143,0.386706 -0.191407,0.527344 -0.145996,0.140215 -0.379058,0.227899 -0.697265,0.261719 -0.226723,0.0241 -0.449636,0.02105 -0.669922,-0.0078 -0.216308,-0.0293 -0.398871,-0.06876 -0.548828,-0.117187 l 0.05469,0.513672 c 0.142003,0.04927 0.314823,0.08147 0.521485,0.0957 0.206662,0.01424 0.429313,0.0078 0.667969,-0.01758 0.465376,-0.04946 0.824125,-0.193612 1.076171,-0.433594 0.252049,-0.239982 0.358521,-0.547912 0.31836,-0.925781 -0.02367,-0.222746 -0.08819,-0.403568 -0.195313,-0.541016 -0.103148,-0.13787 -0.247588,-0.249168 -0.433594,-0.333984 -0.182448,-0.08922 -0.40375,-0.165617 -0.664062,-0.230469 -0.240001,-0.06299 -0.432902,-0.126299 -0.576172,-0.1875 -0.14327,-0.0612 -0.248549,-0.135488 -0.318359,-0.224609 -0.06981,-0.08912 -0.113688,-0.206416 -0.128907,-0.34961 -0.01987,-0.186947 0.03285,-0.343004 0.15625,-0.46875 0.122979,-0.129723 0.317486,-0.208004 0.583985,-0.236328 0.186947,-0.01987 0.367282,-0.01774 0.542969,0.0078 0.179662,0.02515 0.348018,0.06137 0.501953,0.109375 l 0.117187,-0.476563 c -0.166713,-0.05469 -0.349276,-0.09415 -0.548828,-0.117187 -0.09978,-0.01152 -0.203942,-0.01609 -0.3125,-0.01563 z M 7.8535156,14.904297 6.75,17.923828 7.2460938,18.105469 8.3496094,15.083984 Z m 11.4980464,0.300781 c 0.133335,-0.0047 0.252853,0.02735 0.359376,0.0957 0.211297,0.133118 0.405475,0.378403 0.580078,0.738281 l 0.04102,0.08594 c 0.164126,0.338287 0.223583,0.623261 0.179688,0.853516 -0.04204,0.224907 -0.215587,0.412137 -0.521485,0.560546 -0.259111,0.125714 -0.498607,0.123962 -0.720703,-0.0039 -0.218497,-0.129625 -0.41246,-0.367407 -0.580078,-0.71289 -0.165872,-0.341887 -0.235212,-0.643609 -0.207031,-0.90625 0.03003,-0.267989 0.174174,-0.463923 0.429687,-0.587891 0.160147,-0.0777 0.306121,-0.118377 0.439453,-0.123047 z m -10.3105464,0.121094 -0.828125,3.107422 0.5117188,0.136718 0.4414062,-1.658203 c 0.055564,-0.208728 0.1432934,-0.380667 0.265625,-0.513671 0.127226,-0.135844 0.2718028,-0.227396 0.4335938,-0.275391 0.1628196,-0.05186 0.3239416,-0.05779 0.4824216,-0.01563 0.05412,0.01441 0.10814,0.03347 0.164063,0.05664 0.05979,0.02419 0.114946,0.04925 0.162109,0.07422 l 0.1875,-0.453125 c -0.04716,-0.02497 -0.10528,-0.04793 -0.173828,-0.07031 -0.06365,-0.02522 -0.12366,-0.04511 -0.181641,-0.06055 -0.216459,-0.05762 -0.41992,-0.04635 -0.6113278,0.03516 -0.1914073,0.0815 -0.3600851,0.194567 -0.5058593,0.337891 l -0.023437,-0.0059 0.09375,-0.583984 z m 8.1660154,0.257812 -0.507812,0.140625 0.853515,3.09961 0.509766,-0.140625 z m -5.105469,0.792969 c 0.07288,-0.0047 0.151786,-0.0029 0.236329,0.0059 0.576879,0.06006 0.824321,0.49315 0.740234,1.300782 -0.04142,0.397847 -0.145367,0.694677 -0.310547,0.890625 -0.161201,0.196362 -0.385424,0.279824 -0.671875,0.25 -0.350107,-0.03645 -0.579702,-0.164215 -0.689453,-0.384766 -0.105358,-0.224115 -0.138656,-0.533866 -0.09766,-0.927734 l 0.0039,-0.02344 c 0.04266,-0.409782 0.139429,-0.705442 0.291016,-0.886719 0.11369,-0.135955 0.279404,-0.210425 0.498046,-0.224609 z" />
    <path
       id="path35"
       style="fill:none"
       d="m 2.8105469,15.765625 c 0,0 8.7043691,4.93524 14.1074221,4.382813 0.114228,-0.141213 0.231169,-0.279746 0.355469,-0.41211 0.05538,-0.05671 0.11252,-0.111484 0.171874,-0.164062 -0.0035,-2.29e-4 -0.0064,-0.0015 -0.0098,-0.002 -0.0087,-9.96e-4 -0.02595,0.0048 -0.02539,-0.0039 0.004,-0.06254 0.02633,-0.122214 0.03906,-0.183594 v -0.002 c 0.03007,-0.0018 0.05978,-0.004 0.08984,-0.0059 -0.0043,-0.02653 -0.01248,-0.0535 -0.0098,-0.08008 3.67e-4,-0.0036 0.0028,-0.0064 0.0039,-0.0098 -0.07801,-0.02342 -0.08686,-0.128349 0.03516,-0.185547 0.06444,-0.03021 0.03143,-0.01483 0.09961,-0.04687 0.01554,-0.0074 0.0313,-0.01413 0.04687,-0.02148 -0.09807,-0.01505 -0.109833,-0.138438 0.0293,-0.189453 0.02387,-0.0088 0.04927,-0.01306 0.07422,-0.01758 0.0073,-0.0142 0.0234,-0.02207 0.04687,-0.03516 0.0029,-0.0013 0.0069,-7.77e-4 0.0098,-0.002 l 0.002,-0.002 c 0.003,-0.0011 0.0048,-0.0029 0.0078,-0.0039 h 0.002 c 0.01744,-0.0117 0.03872,-0.02304 0.06641,-0.0293 0.001,-2.19e-4 0.0029,2.19e-4 0.0039,0 0.01345,-0.0037 0.02557,-0.0082 0.03906,-0.01172 0.01446,-0.0033 0.02839,-0.0089 0.04297,-0.01172 0.01812,-0.0038 0.03649,-0.0084 0.05469,-0.01172 0.02178,-0.0046 0.04441,-0.0083 0.06641,-0.01172 0.0039,-6.92e-4 0.0078,-0.0012 0.01172,-0.002 h 0.002 c 0.0039,-0.0017 0.0078,-0.0042 0.01172,-0.0059 0.0144,-0.0056 0.02886,-0.0092 0.04297,-0.01563 0.0115,-0.0045 0.01981,-0.0084 0.02734,-0.0098 0.0025,-4.6e-4 0.0056,5e-5 0.0078,0 0.01759,-4e-4 0.02491,0.01158 0.03125,0.03516 0.0078,2.13e-4 0.01409,1.06e-4 0.02148,0.002 0.009,0.0022 0.02234,0.002 0.02734,0.0098 0.0118,0.01829 0.01897,0.03878 0.02734,0.05859 0.09284,0.01945 0.09762,0.139595 -0.03906,0.189453 -0.07213,0.02632 -0.14207,0.05434 -0.21289,0.08398 -0.04969,0.02154 -0.09941,0.04352 -0.148438,0.06641 0.02382,0.01398 0.03606,0.04211 0.05469,0.0625 0.001,0.02208 0.0081,0.04276 0.0039,0.06445 -0.0074,0.03833 -0.03843,0.07219 -0.07031,0.09961 0.02578,0.01774 0.05307,0.01887 0.0625,0.04492 0.14121,0.02645 0.127165,0.183241 -0.04297,0.183594 -0.09254,1.73e-4 -0.184867,0.0012 -0.277344,0.002 5.64e-4,0.0091 2.38e-4,0.01829 0,0.02734 -3e-4,0.01071 -0.0034,0.02083 -0.0059,0.03125 -0.0098,0.04083 -0.02904,0.07945 -0.04687,0.117188 -0.02568,0.04938 -0.03262,0.06541 -0.0625,0.115234 -0.04321,0.07203 -0.09041,0.141739 -0.140626,0.208985 1.005283,-0.180515 1.870539,-0.578961 2.507813,-1.277344 z" />
  </g>
  <g
     inkscape:groupmode="layer"
     id="layer2"
     inkscape:label="line"
     transform="translate(-0.36132813,-4.2030396)">
    <path
       style="opacity:1;fill:none;stroke:#000000;stroke-width:0.0975259;stroke-dasharray:none"
       d="m 2.9612474,16.074756 c 0,0 11.1487606,7.365089 20.3346226,-0.209764"
       id="path37" />
  </g>
  <g
     inkscape:groupmode="layer"
     id="layer3"
     inkscape:label="line 1"
     transform="translate(-0.36132813,-4.2030396)">
    <path
       style="opacity:1;fill:#ffffff;stroke:#ffffff;stroke-width:0.1;stroke-dasharray:none"
       d="m 18.402344,17.503906 c 0.0013,0.0052 0.0012,0.01096 0.0039,0.01563 0.02112,0.03696 0.0779,0.09861 0.09766,0.121094 0.0359,0.04086 0.07311,0.08056 0.109375,0.121094 -0.0052,0.0091 -0.01136,0.01775 -0.01562,0.02734 -0.0053,0.01201 0.0061,0.06813 0,0.07422 -9.2e-4,9.21e-4 -0.003,-9.2e-4 -0.0039,0 -0.002,0.002 0.002,0.0098 0,0.01172 -9.21e-4,9.21e-4 -0.003,-9.21e-4 -0.0039,0 -9.21e-4,9.21e-4 9.2e-4,0.003 0,0.0039 -0.0019,0.0019 -0.0213,0.0072 -0.02344,0.0078 -0.01556,0.0041 -0.03121,0.008 -0.04687,0.01172 -0.01168,0.0028 -0.02377,0.004 -0.03516,0.0078 -0.06141,0.02047 -0.05628,0.01932 -0.09766,0.04297 -0.0069,0.0039 -0.08411,0.0448 -0.07813,0.05078 0.0039,0.0039 0.02298,-0.01136 0.02344,-0.01172 0.07742,-0.06193 -0.0396,0.02572 0.07422,-0.05859 0.05247,-0.03887 0.05937,-0.04974 0.121094,-0.07031 0.02547,-0.0085 0.0525,-0.01152 0.07813,-0.01953 0.005,-0.0016 -0.01047,7.36e-4 -0.01563,0 -0.04048,-0.0058 -0.08074,-0.01293 -0.121094,-0.01953 -0.07016,-0.01148 -0.232558,-0.03683 -0.289063,-0.08203 -0.01788,-0.0143 0.01886,-0.03675 0.02734,-0.03906 0.04376,-0.01193 0.115561,0.03597 0.140625,0.06641 0.01569,0.01905 0.03162,0.05455 0.03906,0.07813 0.006,0.01903 0.0099,0.04631 0.01172,0.06641 9.7e-4,0.01066 -9.91e-4,0.01563 0,0.01563 0.0013,0 -1.08e-4,-0.0026 0,-0.0039 0.0012,-0.01433 0.0026,-0.02865 0.0039,-0.04297 0.0052,-0.05723 0.0039,-0.02859 0.0039,-0.08594 0,-0.02214 -0.007,-0.04541 0,-0.06641 0.0026,-0.0079 0.011,0.01259 0.01563,0.01953 0.04267,0.06401 0.05661,0.139749 0.06641,0.214843 0.0015,0.01169 0.0029,0.02341 0.0039,0.03516 3.25e-4,0.0039 0.0028,0.009 0,0.01172 -0.0021,0.0021 -0.003,-0.0051 -0.0039,-0.0078 -0.003,-0.009 -0.0054,-0.01818 -0.0078,-0.02734 -0.0041,-0.01558 -0.0075,-0.03132 -0.01172,-0.04687 -0.02414,-0.08964 -0.02112,-0.05639 -0.04297,-0.1875 -0.0021,-0.01243 -0.0066,-0.03184 0.0078,-0.03906 0.01026,-0.0051 0.01639,0.01075 0.01953,0.01563 0.03182,0.0495 0.05071,0.104924 0.07031,0.160156 0.0069,0.0194 0.01326,0.03899 0.01953,0.05859 0.0041,0.01295 0.0081,0.02595 0.01172,0.03906 3.43e-4,0.0013 1.85e-4,0.0052 0,0.0039 -0.0044,-0.03079 -0.0043,-0.05031 -0.01563,-0.08203 -0.0072,-0.0203 -0.0182,-0.03908 -0.02734,-0.05859 -0.02858,-0.06097 -0.05333,-0.11093 -0.07813,-0.175781 -0.0011,-0.0029 -0.0061,-0.03292 -0.0039,-0.03516 0.0021,-0.0021 0.0024,0.0053 0.0039,0.0078 0.0024,0.004 0.0062,0.0073 0.0078,0.01172 0.01024,0.02731 -0.0024,0.01318 0.0078,0.02344"
       id="path56" />
    <path
       style="opacity:1;fill:#ffffff;stroke:#ffffff;stroke-width:0.1;stroke-dasharray:none"
       d="m 18.535156,18.027344 c -0.09346,-0.0406 -0.188308,-0.08387 -0.273437,-0.140625 -0.0024,-0.0016 0.0058,0.0018 0.0078,0.0039 0.01239,0.01239 0.02394,0.0256 0.03516,0.03906 0.02977,0.03572 0.106359,0.134075 0.132813,0.167969 0.01827,0.02341 0.03584,0.04737 0.05469,0.07031 0.01112,0.01354 0.02406,0.0255 0.03516,0.03906 8.24e-4,10e-4 10e-4,0.0047 0,0.0039 -0.05377,-0.04481 -0.09359,-0.104338 -0.144532,-0.152343 -0.02502,-0.02358 -0.05356,-0.04324 -0.08203,-0.0625 -0.01592,-0.01077 -0.03359,-0.01875 -0.05078,-0.02734 -0.0037,-0.0018 -0.01325,-0.0077 -0.01172,-0.0039 0.0068,0.0171 0.114138,0.125888 0.128906,0.136718 0.03818,0.028 0.0802,0.05036 0.121094,0.07422 0.0061,0.0035 0.02449,0.0029 0.01953,0.0078 -0.01249,0.01249 -0.04278,-0.02245 -0.07422,-0.03516 -0.04314,-0.01744 -0.08761,-0.03192 -0.132813,-0.04297 -0.02313,-0.0057 -0.06684,-0.0026 -0.05469,0.01563 0.0061,0.0092 0.01563,0.01563 0.02344,0.02344 0.01302,0.01302 0.02508,0.02708 0.03906,0.03906 0.02333,0.02 0.05138,0.03413 0.07422,0.05469 0.006,0.0054 0.01223,0.01146 0.0039,0.01563 -0.02594,0.01297 -0.07854,-0.0075 -0.101563,-0.01172 -0.03729,-0.0069 -0.07528,-0.01172 -0.113281,-0.01172 -0.0074,0 0.0095,0.01154 0.01563,0.01563 0.03464,0.02309 0.07115,0.04221 0.109375,0.05859 0.0064,0.0028 0.01288,0.0056 0.01953,0.0078 0.0012,4.12e-4 0.0052,0 0.0039,0 -0.01302,0 -0.02604,0 -0.03906,0 -0.0072,0 -0.02784,-0.0016 -0.03516,0.0039 -0.0068,0.0051 0.02255,0.05141 0.02734,0.05859 0.004,0.006 0.01259,0.01822 0.01172,0.01953 -0.0073,0.01098 -0.103176,-0.0065 -0.121094,-0.0039 -1.34e-4,1.9e-5 -0.0012,0.01183 0.0039,0.01563 0.0033,0.0025 0.0082,0.0017 0.01172,0.0039 0.01099,0.007 0.02026,0.01645 0.03125,0.02344 0.01572,0.01001 0.01588,0.0042 0.02734,0.01953 0.01,0.01327 0.02185,0.02344 0,0.02344"
       id="path57" />
    <path
       style="opacity:1;fill:#ffffff;stroke:#ffffff;stroke-width:0.1;stroke-dasharray:none"
       d="m 18.300781,18.472656 c -0.01905,0.0058 -0.02546,0.02818 -0.03906,0.03906 -0.0038,0.0031 -0.0334,0.016 -0.03906,0.01953 -0.0055,0.0035 -0.01021,0.0081 -0.01563,0.01172 -0.01761,0.01174 -0.04291,0.0156 -0.0625,0.02344 -0.0054,0.0022 -0.0099,0.0067 -0.01563,0.0078 -0.0049,9.77e-4 -0.04901,-0.0018 -0.05078,0 -9.21e-4,9.2e-4 9.21e-4,0.003 0,0.0039 -0.0022,0.0022 -0.01656,0 -0.01953,0"
       id="path58" />
    <path
       style="opacity:1;fill:#ffffff;stroke:#ffffff;stroke-width:0.1;stroke-dasharray:none"
       d="m 18.429687,18.394531 -0.300781,0.101563"
       id="path59" />
    <ellipse
       style="opacity:1;fill:#552200;stroke:none;stroke-width:0.0750784;stroke-dasharray:none"
       id="path60"
       cx="13.151939"
       cy="6.9584732"
       rx="11.395815"
       ry="1.970813" />
    <path
       style="fill:#cccccc;stroke:#cccccc;stroke-width:0.00301863"
       d="m 12.557489,14.990746 -0.120745,-0.01836 0.103237,-0.04352 c 0.256443,-0.108106 0.544466,-0.518274 0.647743,-0.92244 0.163969,-0.641671 0.121292,-1.286423 -0.111434,-1.683541 -0.365307,-0.623347 -1.366575,-0.794621 -1.901201,-0.325213 -0.0615,0.054 -0.111821,0.09248 -0.111821,0.0855 0,-0.007 0.01362,-0.08649 0.03027,-0.176698 0.03122,-0.169149 0.183711,-1.545552 0.172329,-1.555409 -0.0035,-0.003 -0.132037,-0.01528 -0.28561,-0.0272 l -0.279223,-0.02167 -10e-4,0.08622 c -0.0022,0.181684 -0.441083,4.29659 -0.460328,4.315836 -0.04394,0.04394 -1.8327915,-0.362533 -1.8327915,-0.41646 0,-0.08547 0.4616422,-1.734963 0.5146345,-1.838836 0.2484355,-0.486973 0.8067154,-0.684407 1.268757,-0.448691 0.06831,0.03485 0.127534,0.05902 0.131617,0.05371 0.03184,-0.0414 0.190389,-0.465482 0.180196,-0.481974 -0.0072,-0.01158 -0.104551,-0.05232 -0.216437,-0.09054 -0.3053501,-0.10431 -0.5709594,-0.097 -0.823678,0.02267 -0.1087022,0.05147 -0.2502218,0.13974 -0.3144878,0.196144 l -0.1168471,0.102554 0.018783,-0.150931 c 0.010331,-0.08301 0.027895,-0.214349 0.039031,-0.291858 l 0.020248,-0.140926 -0.1169646,-0.03291 c -0.064331,-0.0181 -0.1646679,-0.0408 -0.2229721,-0.05045 l -0.1060075,-0.01754 -0.398684,1.501031 C 8.0448265,13.444811 7.859062,14.126632 7.851293,14.134401 7.836,14.149691 6.9869631,13.875486 6.9515912,13.843829 c -0.011812,-0.01057 0.220274,-0.677879 0.5157463,-1.482908 0.295472,-0.805029 0.5292142,-1.473253 0.5194272,-1.484942 -0.00979,-0.01169 -0.1238714,-0.05865 -0.2535212,-0.104351 -0.1826562,-0.06439 -0.2410398,-0.0745 -0.2593278,-0.04491 -0.012981,0.021 -0.2585988,0.682629 -0.5458176,1.47028 -0.3093688,0.848392 -0.537616,1.432092 -0.5599985,1.432092 -0.041586,0 -0.4622668,-0.166677 -0.4895552,-0.193965 C 5.859678,13.416308 5.4197659,10.812768 5.4190834,10.716126 5.4187188,10.664483 5.5818982,10.59298 6.5477055,10.221581 7.1686821,9.9827858 7.6940168,9.7767388 7.7151155,9.7636992 7.7401601,9.7482206 7.6531524,9.690154 7.4644768,9.5964296 L 7.1754761,9.4528688 6.8931346,9.5610048 c -0.1552875,0.059475 -0.7347704,0.2859765 -1.2877391,0.5033372 -0.552969,0.21736 -1.0114668,0.395201 -1.0188841,0.395201 -0.00742,0 0.190315,-0.407427 0.4394052,-0.9053935 0.2490905,-0.4979663 0.4528916,-0.9189133 0.4528916,-0.9354376 0,-0.016524 -0.1084735,-0.084583 -0.2410519,-0.1512425 L 4.9967042,8.3462709 4.8871745,8.5652379 C 4.6379883,9.0633995 3.1140636,12.075355 3.1061372,12.085362 c -0.00473,0.006 -0.111733,-0.05176 -0.2377884,-0.128291 -0.1260553,-0.07653 -0.2402589,-0.139146 -0.2537857,-0.139146 -0.029349,0 -0.29242,-0.948453 -0.4395685,-1.584779 C 1.8715726,8.9210329 1.5914807,6.9688227 1.4192433,4.9656416 c -0.05503,-0.6400206 -0.0958,-1.7508037 -0.06426,-1.7508037 0.01167,0 0.1251233,0.070114 0.2521179,0.1558092 1.3872792,0.9361263 4.3510445,1.5134701 8.8222558,1.7185823 0.990008,0.045416 3.805617,0.046082 4.799617,0.00114 2.887946,-0.1305849 5.146415,-0.3997903 6.773228,-0.8073567 0.95608,-0.239527 1.528413,-0.4714689 2.066836,-0.8375978 0.08883,-0.060405 0.189374,-0.1098282 0.223429,-0.1098282 0.06057,0 0.06147,0.0097 0.04124,0.4452475 -0.08066,1.7362557 -0.384625,4.2197944 -0.71482,5.8403353 -0.158565,0.7782075 -0.173352,0.8227105 -0.373125,1.1229505 -0.200132,0.300779 -0.473103,0.556589 -0.73047,0.684546 -0.228724,0.113716 -0.492965,0.126435 -0.705706,0.03397 -0.169047,-0.07348 -0.489441,-0.331409 -0.477071,-0.384066 0.0051,-0.0215 0.379343,-0.340268 0.831759,-0.708372 0.452417,-0.368103 0.822576,-0.6812631 0.822576,-0.6959113 0,-0.043198 -0.282223,-0.369585 -0.4386,-0.5072329 -0.308862,-0.2718712 -0.722963,-0.4006183 -1.080214,-0.3358458 -0.273142,0.049523 -0.484057,0.1619695 -0.718325,0.3829662 -0.60217,0.5680558 -0.587112,1.3518858 0.0412,2.1447198 0.378385,0.477466 0.878918,0.731015 1.363112,0.690498 l 0.208599,-0.01746 -0.208599,0.152068 c -0.312696,0.227955 -1.058384,0.720833 -1.088141,0.719229 -0.01432,-7.72e-4 -0.358201,-0.690151 -0.764168,-1.531953 -0.405968,-0.841802 -0.84065,-1.7371921 -0.965961,-1.9897549 l -0.227837,-0.459205 -0.247003,0.1207919 -0.247002,0.1207918 0.0441,0.1055436 c 0.06719,0.1607974 0.582269,1.1917036 0.651977,1.3048876 0.03377,0.05483 0.0544,0.106695 0.04584,0.115252 -0.0086,0.0086 -0.08728,-0.0057 -0.174946,-0.03177 -0.344709,-0.102367 -0.728612,-0.03088 -1.069111,0.199078 -0.380274,0.256822 -0.544722,0.576315 -0.541272,1.051599 0.0018,0.246461 0.017,0.32987 0.108204,0.593401 0.260575,0.752917 0.712531,1.26725 1.217911,1.386002 l 0.150931,0.03547 -0.145675,0.06409 c -0.217827,0.09583 -1.083421,0.402558 -1.149381,0.407291 -0.05068,0.0036 -0.106138,-0.172392 -0.472488,-1.499732 -0.228287,-0.827118 -0.420604,-1.509387 -0.427369,-1.516152 -0.0068,-0.0068 -0.126949,0.01917 -0.267076,0.05762 -0.215449,0.05913 -0.253266,0.07882 -0.244996,0.127583 0.01033,0.0609 0.788589,2.900559 0.811262,2.960074 0.0085,0.02228 -0.104914,0.06242 -0.316558,0.112049 -0.306003,0.07175 -0.975217,0.200375 -1.042552,0.200375 -0.01619,0 0.02569,-0.03993 0.09307,-0.08874 0.16454,-0.119192 0.324832,-0.334956 0.38628,-0.519958 0.07956,-0.23954 0.05192,-0.685512 -0.05618,-0.906467 -0.160226,-0.327489 -0.497751,-0.532398 -1.203634,-0.730717 -0.623645,-0.175215 -0.81741,-0.279702 -0.929198,-0.501067 -0.175985,-0.348489 -0.05181,-0.689644 0.308046,-0.846311 0.283248,-0.123315 0.848076,-0.115547 1.338091,0.0184 0.05657,0.01546 0.06783,-0.0063 0.118679,-0.228886 0.04778,-0.209204 0.04983,-0.249894 0.01372,-0.272213 -0.02335,-0.01443 -0.170117,-0.04923 -0.326142,-0.07732 -0.570278,-0.10268 -1.244562,-0.01323 -1.602222,0.212551 -0.392256,0.24762 -0.567904,0.647241 -0.485136,1.103744 0.100724,0.555538 0.431711,0.844096 1.212619,1.057174 0.667086,0.182021 0.916172,0.305777 1.017368,0.505466 0.198114,0.390938 0.03388,0.774302 -0.403808,0.942613 -0.32661,0.125595 -1.046945,0.116282 -1.550556,-0.02005 l -0.07143,-0.01934 0.02077,0.223289 c 0.01142,0.122809 0.0275,0.247061 0.03573,0.276115 0.01387,0.04897 -0.02322,0.05251 -0.507786,0.04854 -0.287511,-0.0024 -0.577082,-0.01254 -0.643492,-0.02264 z m 5.237318,-0.70111 c 0,-0.0166 -0.01358,-0.02179 -0.03019,-0.01153 -0.0166,0.01026 -0.03019,0.03224 -0.03019,0.04884 0,0.0166 0.01358,0.02179 0.03019,0.01153 0.0166,-0.01026 0.03019,-0.03224 0.03019,-0.04884 z m -1.309673,-3.346701 c 0.01849,-2.26e-4 0.06943,-0.03622 0.113199,-0.07999 0.06304,-0.06304 0.07956,-0.108535 0.07947,-0.21885 -2.85e-4,-0.350996 -0.317053,-0.500924 -0.56588,-0.267834 -0.08251,0.07729 -0.09252,0.280194 -0.02069,0.419112 0.05224,0.101015 0.206311,0.184367 0.299909,0.162246 0.0332,-0.0078 0.0755,-0.01445 0.09399,-0.01468 z M 8.2560471,10.222595 C 8.520049,9.9585927 8.2843655,9.527453 7.94209,9.6482675 7.7136439,9.7289032 7.6335872,10.053133 7.8008291,10.220375 c 0.072245,0.07224 0.1136975,0.08824 0.228719,0.08824 0.1141946,0 0.156578,-0.0161 0.226499,-0.08602 z M 18.881512,6.1544363 c 0,-0.024904 -0.01358,-0.036884 -0.03019,-0.026623 -0.0166,0.010261 -0.03019,0.039032 -0.03019,0.063936 0,0.024903 0.01358,0.036884 0.03019,0.026623 0.0166,-0.010261 0.03019,-0.039032 0.03019,-0.063935 z"
       id="path9"
       transform="translate(0.36132813,4.2030396)" />
    <path
       style="fill:#ececec;stroke:#cccccc;stroke-width:0.00301863"
       d="m 11.643637,14.591209 c -0.206341,-0.03376 -0.437552,-0.152042 -0.517982,-0.264995 -0.209849,-0.294706 -0.236892,-0.955375 -0.06224,-1.520497 0.138733,-0.448894 0.343027,-0.61082 0.769601,-0.609998 0.307436,5.93e-4 0.484467,0.06602 0.642481,0.237443 0.178788,0.193963 0.233571,0.385567 0.229737,0.803518 -0.0089,0.970651 -0.395206,1.463547 -1.061599,1.354529 z"
       id="path12"
       transform="translate(0.36132813,4.2030396)" />
    <path
       style="fill:#ececec;stroke:#cccccc;stroke-width:0.00301863"
       d="m 12.542396,14.959332 c 0,-0.01548 0.02643,-0.03654 0.05872,-0.04679 0.103421,-0.03282 0.360714,-0.345794 0.468488,-0.569865 0.162986,-0.33886 0.208822,-0.572886 0.210709,-1.07581 0.0014,-0.370471 -0.0086,-0.470253 -0.06504,-0.64963 -0.120443,-0.382771 -0.384763,-0.66437 -0.763437,-0.813344 -0.17575,-0.06914 -0.600117,-0.09415 -0.82056,-0.04835 -0.102082,0.02121 -0.246872,0.08432 -0.357542,0.155849 l -0.185988,0.12021 0.01854,-0.114385 c 0.03092,-0.190716 0.16774,-1.406691 0.16802,-1.493234 2.84e-4,-0.08749 0.03289,-0.07839 -0.45927,-0.128216 -0.135496,-0.01372 -0.105933,-0.165174 -0.24997,1.280669 -0.06037,0.605989 -0.159749,1.550065 -0.220843,2.097946 l -0.111081,0.996147 -0.09056,-0.0025 c -0.1833133,-0.0051 -0.3928435,-0.02813 -0.4075146,-0.04475 -0.025731,-0.02915 -0.4860612,-0.120401 -0.5155181,-0.102195 -0.015309,0.0095 -0.027835,0.0056 -0.027835,-0.0086 0,-0.0142 -0.1052746,-0.04968 -0.2339436,-0.07883 -0.3866034,-0.08759 -0.5207132,-0.138836 -0.5207132,-0.198974 0,-0.05876 0.2798805,-1.081115 0.4230585,-1.545351 0.073488,-0.238274 0.1145337,-0.318449 0.2271695,-0.443728 0.2640964,-0.293738 0.6300786,-0.399115 0.9647375,-0.277775 0.28779,0.104346 0.281441,0.106944 0.385392,-0.157668 0.05061,-0.128819 0.08498,-0.241244 0.07639,-0.249833 -0.04464,-0.04465 -0.394555,-0.143774 -0.5545248,-0.157095 -0.2361128,-0.01966 -0.4565381,0.0438 -0.7010629,0.201846 l -0.1872521,0.121027 0.0018,-0.09745 c 9.898e-4,-0.0536 0.01326,-0.165367 0.027267,-0.248379 0.014007,-0.08301 0.016593,-0.160162 0.00575,-0.171444 -0.017961,-0.01868 -0.4337436,-0.113382 -0.448763,-0.102211 -0.00354,0.0026 -0.116379,0.418461 -0.2507559,0.924063 C 7.9973248,13.569344 7.8594559,14.065668 7.8334441,14.092819 7.8084891,14.118869 7.713,14.092486 7.225041,13.924743 l -0.261148,-0.08977 0.1141735,-0.336852 c 0.062795,-0.185269 0.2733835,-0.778327 0.4679738,-1.317907 0.4310488,-1.195255 0.450215,-1.253403 0.4302673,-1.305386 -0.019413,-0.05059 -0.4180938,-0.190486 -0.4775761,-0.16758 -0.023501,0.0091 -0.2046617,0.456237 -0.4025798,0.993748 -0.5936082,1.612134 -0.7060282,1.889432 -0.773109,1.906975 -0.032669,0.0085 -0.059398,0.0065 -0.059398,-0.0044 0,-0.01098 -0.080861,-0.05132 -0.1796898,-0.08964 C 5.9851319,13.475516 5.8970637,13.42125 5.8882542,13.393247 5.8691752,13.332599 5.6400741,12.017633 5.520234,11.280931 5.4578148,10.897216 5.443825,10.745572 5.4673975,10.708202 5.5022632,10.652929 5.7132538,10.563188 6.9277492,10.087075 7.3677141,9.9145977 7.7266572,9.7614422 7.7254003,9.7467294 7.7241436,9.7320169 7.6000741,9.655726 7.4496906,9.577194 L 7.1762658,9.4344087 6.2596177,9.7929603 C 4.8670553,10.337669 4.6336309,10.425341 4.6331513,10.403849 4.6329086,10.392975 4.8249304,9.9945717 5.0598665,9.5185094 5.3077344,9.0162425 5.4795327,8.6334223 5.4691773,8.6064367 5.4531535,8.5646794 5.0623656,8.3465039 5.0035957,8.3465039 c -0.013159,0 -0.4447848,0.835332 -0.9591677,1.8562931 -0.5143832,1.020962 -0.9488259,1.852971 -0.9654284,1.84891 -0.016602,-0.0041 -0.1275278,-0.06172 -0.2465009,-0.12813 L 2.616184,11.802832 2.5167493,11.470783 c -0.054689,-0.182627 -0.1102502,-0.336605 -0.123469,-0.342174 -0.013219,-0.0056 -0.017351,-0.02094 -0.00918,-0.03415 0.00817,-0.01322 -0.038374,-0.239585 -0.1034255,-0.503042 C 2.0766768,9.7652457 1.9203377,8.9421023 1.7797648,7.9540824 1.7526,7.7631542 1.7226954,7.5865646 1.7133101,7.5616609 1.7039247,7.5367572 1.6984986,7.4960057 1.7012519,7.4711021 1.7040053,7.4461984 1.6860712,7.2899844 1.6613984,7.1239599 1.6367256,6.9579355 1.6106276,6.7541781 1.603403,6.6711659 1.5961783,6.5881536 1.5555497,6.180639 1.5131172,5.7655778 1.4706848,5.3505165 1.422171,4.8003717 1.405309,4.5430338 1.3731191,4.0517739 1.3563672,3.2822564 1.3774046,3.261219 c 0.00678,-0.00678 0.1071525,0.049109 0.2230497,0.1241976 0.3820835,0.247549 1.3076027,0.6697093 1.3758118,0.6275538 0.014997,-0.00927 0.027268,-0.00308 0.027268,0.013747 0,0.024068 0.1217314,0.063243 0.2414901,0.077716 0.0083,0.001 0.028677,0.010301 0.045279,0.020663 0.1409198,0.087946 1.4631838,0.3862016 2.3092498,0.5208851 0.7102241,0.1130591 2.0960389,0.2824683 2.3243428,0.2841397 0.024904,1.823e-4 0.1879096,0.013881 0.3622353,0.030441 0.1743257,0.01656 0.3373316,0.030411 0.3622352,0.030779 0.024904,3.683e-4 0.1471581,0.00869 0.2716765,0.018486 0.2167839,0.01706 0.3917725,0.028415 1.0263332,0.066598 0.649156,0.039061 1.246844,0.049362 2.882789,0.049683 2.007822,3.947e-4 2.672408,-0.018833 3.954402,-0.1144066 0.116217,-0.00866 0.326766,-0.022575 0.467887,-0.030913 0.404071,-0.023874 1.754981,-0.1638277 2.203598,-0.2282911 0.224133,-0.032207 0.42789,-0.059787 0.452794,-0.06129 0.449376,-0.027121 2.563583,-0.4711976 2.591051,-0.5442355 0.0056,-0.014807 0.02073,-0.020367 0.03369,-0.012356 0.03063,0.018928 0.496402,-0.1364762 0.509661,-0.1700466 0.0056,-0.0141 0.02226,-0.018136 0.03709,-0.00897 0.03426,0.021176 0.689688,-0.2891951 0.760264,-0.3600164 0.02905,-0.029155 0.05283,-0.044322 0.05283,-0.033704 0,0.010618 0.03736,-0.00701 0.08301,-0.039181 0.04566,-0.032167 0.140743,-0.087704 0.211304,-0.1234141 l 0.128291,-0.064928 -6.37e-4,0.3251159 c -3.5e-4,0.1788138 -0.01914,0.5764167 -0.04175,0.883562 -0.02261,0.3071453 -0.04236,0.5788217 -0.04387,0.6037254 -0.0053,0.08709 -0.03445,0.3783704 -0.04982,0.4980735 -0.0085,0.06641 -0.05012,0.426381 -0.09241,0.7999362 -0.214549,1.8949555 -0.545765,3.7258171 -0.741258,4.0974561 -0.192207,0.365391 -0.525041,0.706537 -0.854726,0.876073 -0.204735,0.105282 -0.516208,0.112506 -0.698162,0.01619 -0.153823,-0.08142 -0.43561,-0.302414 -0.43561,-0.341627 0,-0.01616 0.360768,-0.329234 0.801708,-0.69573 0.440939,-0.366497 0.809209,-0.6859054 0.818377,-0.7097973 0.03988,-0.1039346 -0.436064,-0.5881209 -0.71956,-0.7320161 -0.390839,-0.1983797 -0.804717,-0.1976697 -1.180476,0.00203 -0.203933,0.1083783 -0.458761,0.3437485 -0.580567,0.5362364 -0.373,0.589445 -0.201928,1.378913 0.443628,2.047275 0.327046,0.3386 0.713478,0.517588 1.1219,0.519644 l 0.215671,0.0011 -0.09056,0.07439 c -0.113326,0.09309 -1.025647,0.704125 -1.085737,0.727184 -0.04173,0.01601 -0.368093,-0.617901 -1.027673,-1.996099 -0.546747,-1.1424336 -0.951015,-1.9470151 -0.978293,-1.9470151 -0.06512,0 -0.48537,0.2260263 -0.48537,0.2610478 0,0.020078 0.16338,0.3646481 0.363067,0.7657116 l 0.363067,0.7292067 -0.09894,-0.02522 c -0.05441,-0.01387 -0.235528,-0.02522 -0.402472,-0.02522 -0.292116,0 -0.312557,0.0044 -0.543353,0.118246 -0.308217,0.15197 -0.552645,0.393411 -0.649552,0.641614 -0.05591,0.143187 -0.06909,0.237691 -0.07084,0.507964 -0.0023,0.348153 0.03599,0.511718 0.213614,0.913353 0.08245,0.186428 0.307534,0.550681 0.340288,0.550681 0.01245,0 0.03781,0.03329 0.05635,0.07399 0.06987,0.153356 0.393496,0.363542 0.74573,0.484337 0.04964,0.01702 0.03355,0.03134 -0.09056,0.08054 -0.08301,0.03291 -0.155487,0.07251 -0.161056,0.088 -0.0056,0.01549 -0.02145,0.02117 -0.03528,0.01262 -0.02944,-0.01819 -0.463253,0.136387 -0.477255,0.17006 -0.0052,0.01256 -0.029,0.01536 -0.05283,0.0062 -0.02383,-0.0091 -0.04333,-0.0045 -0.04333,0.01032 0,0.01482 -0.02377,0.02782 -0.05283,0.02889 -0.02905,0.0011 -0.09018,0.01224 -0.135838,0.02483 -0.06564,0.01811 -0.08301,0.01274 -0.08301,-0.02566 0,-0.05732 -0.04951,-0.06513 -0.06863,-0.01082 -0.0073,0.02075 -0.05522,-0.09811 -0.106477,-0.26413 -0.09332,-0.30226 -0.694433,-2.443313 -0.723194,-2.575859 -0.0084,-0.03872 -0.03333,-0.07733 -0.0554,-0.0858 -0.05461,-0.02095 -0.48859,0.110256 -0.504499,0.15253 -0.01267,0.03367 0.177579,0.755285 0.58508,2.219224 0.169576,0.609198 0.205197,0.771887 0.173475,0.792281 -0.05226,0.0336 -0.236887,0.08587 -0.304049,0.08609 -0.02905,9.3e-5 -0.05283,0.01455 -0.05283,0.03214 0,0.01758 -0.01165,0.02477 -0.02589,0.01596 -0.01424,-0.0088 -0.194226,0.01725 -0.399968,0.05789 -0.477876,0.09439 -0.487843,0.09372 -0.355842,-0.02394 0.270898,-0.241467 0.362512,-0.457323 0.361453,-0.851629 -0.001,-0.373547 -0.05752,-0.54504 -0.248491,-0.75399 -0.193386,-0.211596 -0.478982,-0.353166 -1.066969,-0.528899 -0.232435,-0.06947 -0.493296,-0.15971 -0.579693,-0.200538 -0.565127,-0.267057 -0.522368,-0.967058 0.06996,-1.145323 0.193633,-0.05827 0.735447,-0.05479 1.040579,0.0067 0.282394,0.0569 0.273754,0.06214 0.329316,-0.199679 0.05281,-0.24883 0.03981,-0.280334 -0.136045,-0.329841 -0.232046,-0.06533 -1.123146,-0.06306 -1.36338,0.0035 -0.57802,0.160072 -0.903669,0.502811 -0.938355,0.9876 -0.03824,0.534464 0.222939,0.963568 0.726447,1.193513 0.119491,0.05457 0.373471,0.143338 0.564399,0.197264 0.49697,0.140364 0.824181,0.301538 0.926709,0.456468 0.115024,0.173812 0.1286,0.415631 0.03366,0.599597 -0.0813,0.15755 -0.275,0.314449 -0.456021,0.369394 -0.172065,0.05223 -1.163866,0.05081 -1.349566,-0.0019 -0.07471,-0.02122 -0.160447,-0.04574 -0.190525,-0.0545 -0.047,-0.01368 -0.05248,-0.0018 -0.039,0.08481 0.0086,0.0554 0.02402,0.178837 0.03422,0.274301 l 0.01853,0.173572 h -0.575711 c -0.335951,0 -0.575711,-0.01173 -0.575711,-0.02815 z m 4.047282,-4.074859 c 0.0768,-0.0768 0.08824,-0.110447 0.08824,-0.259602 0,-0.154638 -0.01002,-0.181384 -0.102634,-0.273999 -0.139409,-0.139409 -0.319881,-0.132913 -0.4697,0.01691 -0.08807,0.08807 -0.08639,0.353944 0.003,0.467536 0.128478,0.163334 0.34485,0.185441 0.481133,0.04916 z M 8.2830044,10.201909 c 0.075527,-0.08602 0.093686,-0.133412 0.093686,-0.2445087 0,-0.1164725 -0.015889,-0.1536949 -0.1026333,-0.2404397 C 8.1587601,9.6016639 8.0404055,9.5837474 7.8940431,9.6594343 7.7660286,9.7256334 7.7125922,9.8203217 7.7125922,9.9809631 c 0,0.1086179 0.018329,0.1636819 0.078149,0.2347739 0.06919,0.08223 0.096517,0.09287 0.2383631,0.09287 0.145609,0 0.1687546,-0.0097 0.2539001,-0.106703 z M 18.881512,6.1730924 c 0,-0.033205 -0.01358,-0.060372 -0.03019,-0.060372 -0.0166,0 -0.03019,0.027168 -0.03019,0.060372 0,0.033205 0.01358,0.060373 0.03019,0.060373 0.0166,0 0.03019,-0.027168 0.03019,-0.060373 z"
       id="path13"
       transform="translate(0.36132813,4.2030396)" />
    <path
       style="fill:#ececec;stroke:#cccccc;stroke-width:0.00301863"
       d="m 11.923577,18.833804 c -0.06641,-0.0064 -0.290543,-0.02661 -0.498073,-0.0449 -1.204235,-0.106143 -3.0029482,-0.447219 -3.9925036,-0.757067 -0.3130676,-0.09803 -0.4016139,-0.09699 -0.3694601,0.0043 0.031327,0.0987 -0.084406,0.07563 -0.3875528,-0.07725 C 6.1895445,17.713566 5.9093003,17.509678 5.5228461,17.119943 4.5596576,16.148577 3.6991682,14.839629 3.1982342,13.583822 3.0457202,13.20148 2.6416309,12.021244 2.6573403,12.004017 c 0.00508,-0.0056 0.1631519,0.08142 0.3512817,0.193306 0.4648462,0.276451 1.3267577,0.717544 1.9117402,0.978353 0.2656392,0.118433 0.584859,0.265295 0.7093773,0.326359 0.1245184,0.06106 0.2467728,0.112853 0.2716765,0.115085 0.024904,0.0022 0.2829963,0.09262 0.5735391,0.200855 2.3911904,0.890805 4.6623149,1.32274 6.9376969,1.319451 1.200194,-0.0017 2.057268,-0.08532 3.128465,-0.305098 1.141898,-0.234284 2.64661,-0.75027 3.485986,-1.195392 1.218721,-0.64629 1.766197,-0.994534 2.672973,-1.70025 0.237903,-0.185152 0.395684,-0.289463 0.400707,-0.264911 0.0128,0.06256 -0.330881,1.085281 -0.551473,1.641085 -0.909723,2.292127 -2.114077,3.835061 -3.500703,4.484855 -0.89281,0.418386 -2.747263,0.812947 -4.604476,0.979669 -0.488551,0.04386 -2.243505,0.08314 -2.520554,0.05642 z"
       id="path14"
       transform="translate(0.36132813,4.2030396)" />
    <path
       style="fill:#ececec;stroke:#cccccc;stroke-width:0.00301863"
       d="m 19.092621,13.391276 c -0.487992,-0.159292 -1.008353,-1.048811 -0.956992,-1.635909 0.02588,-0.295855 0.151121,-0.473158 0.434329,-0.614886 0.495719,-0.248077 0.883747,-0.09478 1.221653,0.48262 0.323953,0.553564 0.427646,0.989255 0.301407,1.266437 -0.146072,0.320731 -0.701505,0.599303 -1.000397,0.501738 z"
       id="path15"
       transform="translate(0.36132813,4.2030396)" />
    <path
       style="fill:#ececec;stroke:#cccccc;stroke-width:0.00301863"
       d="m 20.964928,10.605629 c -0.09448,-0.153099 -0.160031,-0.40895 -0.144904,-0.565539 0.01797,-0.1860287 0.09286,-0.3349045 0.243513,-0.4840613 0.262269,-0.2596736 0.517953,-0.3074712 0.824726,-0.1541747 0.09839,0.049164 0.22396,0.1358953 0.279052,0.1927358 l 0.100167,0.1033462 -0.583639,0.475651 c -0.321002,0.261609 -0.60008,0.488521 -0.620173,0.50425 -0.0257,0.02012 -0.05498,-0.0013 -0.09874,-0.07221 z"
       id="path16"
       transform="translate(0.36132813,4.2030396)" />
    <path
       style="fill:#ececec;stroke:#cccccc;stroke-width:0.00301863"
       d="M 11.817925,20.297005 C 10.280542,20.221655 8.8831412,19.969932 8.3844049,19.678502 8.1907679,19.565353 8.1506468,19.466476 8.150455,19.101939 8.1503482,18.89871 8.162889,18.781488 8.18736,18.756972 c 0.029332,-0.02939 0.101772,-0.02315 0.3471421,0.0299 1.8412669,0.398041 2.6256909,0.474412 4.5965259,0.447512 1.749321,-0.02388 2.984628,-0.15053 4.041051,-0.414325 0.423017,-0.105629 0.459918,-0.107974 0.480175,-0.03051 0.02377,0.0909 -0.03385,0.535404 -0.08539,0.658772 -0.09131,0.218537 -0.238397,0.309604 -0.741782,0.45927 -1.096789,0.326096 -3.107877,0.482502 -5.007154,0.389415 z"
       id="path17"
       transform="translate(0.36132813,4.2030396)" />
    <path
       style="fill:#ececec;stroke:#cccccc;stroke-width:0.00301863"
       d="m 21.825222,15.712841 c -0.02275,-0.0368 0.01542,-0.110261 0.308023,-0.592825 0.129767,-0.214014 0.269639,-0.467027 0.310827,-0.562251 0.08884,-0.205399 0.122227,-0.220594 0.542773,-0.247038 0.903865,-0.05684 2.277435,-0.62624 3.094093,-1.282636 1.003499,-0.80657 1.990625,-2.070835 2.582941,-3.3081117 C 29.502038,7.9691677 29.572209,6.513842 28.863716,5.5754491 28.407651,4.9713956 27.487906,4.6346015 26.742387,4.7986564 26.078749,4.9446928 25.548565,5.313873 24.825803,6.133223 l -0.328565,0.3724732 0.01426,-0.128569 c 0.0078,-0.070713 0.02864,-0.3934536 0.0462,-0.7172014 0.06095,-1.1233203 0.11525,-1.3883145 0.326552,-1.5936764 0.291221,-0.2830351 1.286959,-0.6853853 1.781262,-0.719759 0.415079,-0.028864 1.176418,0.050702 1.679392,0.1755103 0.620218,0.1539014 1.120934,0.6065927 1.479929,1.3379889 0.183285,0.3734123 0.289604,0.7132316 0.382496,1.222544 0.05142,0.281912 0.06341,0.4690943 0.0638,0.9961469 5.56e-4,0.7426843 -0.05957,1.2327503 -0.234632,1.9124687 -0.425101,1.6505388 -1.139042,2.8705018 -2.490621,4.2559028 -0.681355,0.698404 -1.064394,0.984541 -1.84226,1.376196 -0.778352,0.391901 -1.578222,0.690869 -2.430004,0.908267 -0.685959,0.175074 -1.397224,0.264118 -1.448393,0.181326 z"
       id="path18"
       transform="translate(0.36132813,4.2030396)" />
    <path
       style="fill:#e6e6e6;stroke:#cccccc;stroke-width:0.00301863"
       d="m 22.858554,13.880292 c -0.02906,-0.0078 -0.05283,-0.04081 -0.05283,-0.07342 0,-0.03261 0.0863,-0.293104 0.191787,-0.578872 0.48424,-1.31187 0.904563,-2.944683 1.210762,-4.7033934 0.19614,-1.1265675 0.431416,-1.6548249 1.009036,-2.2655558 1.065679,-1.1267655 2.166782,-1.3813946 3.033149,-0.7014129 0.292545,0.2296086 0.558545,0.62731 0.652199,0.9751172 0.313282,1.1634382 -0.398196,3.1636998 -1.718839,4.8323769 -0.345451,0.436489 -1.006238,1.08807 -1.404747,1.385175 -0.567898,0.423394 -1.682022,0.926372 -2.369622,1.069782 -0.272196,0.05677 -0.47916,0.07939 -0.550899,0.0602 z m 1.100863,-0.823451 c 0.08387,-0.06597 0.263386,-0.392448 0.337515,-0.613817 0.12568,-0.375314 0.782992,-3.467894 0.86294,-4.0600433 0.03938,-0.2916674 0.09831,-0.4417397 0.290609,-0.7400934 0.411289,-0.6381124 1.031472,-1.1942203 1.50011,-1.3451232 0.397824,-0.1281005 0.627206,-0.1099473 1.100001,0.087053 0.153573,0.06399 0.279223,0.1068068 0.279223,0.09515 0,-0.047426 -0.294864,-0.3729131 -0.405608,-0.4477322 -0.352406,-0.2380872 -0.997425,-0.2775111 -1.390475,-0.084987 -0.386116,0.1891283 -0.990167,0.7461861 -1.233297,1.1373503 -0.306866,0.4937064 -0.409063,0.8133358 -0.65289,2.0419602 -0.207858,1.0473806 -0.276362,1.3427586 -0.603175,2.6008076 -0.262081,1.008867 -0.319374,1.271827 -0.292413,1.342087 0.02452,0.0639 0.117367,0.05826 0.20746,-0.01261 z"
       id="path19"
       transform="translate(0.36132813,4.2030396)" />
    <path
       style="fill:#f9f9f9;stroke:#f2f2f2;stroke-width:0.00301863"
       d="M 10.519915,22.683139 C 9.7881797,22.644869 8.3630979,22.467689 7.1390531,22.262799 4.2191493,21.774041 2.0999398,21.119043 0.9531428,20.350879 0.55201373,20.082189 0.38901475,19.879604 0.35709276,19.610073 0.28247194,18.980017 1.5779608,18.396786 4.3246735,17.823864 c 1.0128177,-0.211259 1.2672321,-0.199387 1.7185905,0.0802 0.3268267,0.202445 0.74143,0.389538 1.1684903,0.527289 0.2106796,0.06796 0.4190491,0.154519 0.4630435,0.192361 0.075932,0.06531 0.081042,0.08776 0.1007376,0.442527 0.022683,0.408566 0.039449,0.501042 0.120036,0.662088 0.1229979,0.245799 0.4054838,0.420012 0.9717861,0.599315 0.9642702,0.305308 2.2209185,0.414962 4.4146015,0.385214 1.962042,-0.02661 2.916106,-0.133744 3.777891,-0.424245 0.547748,-0.184642 0.743658,-0.314412 0.872635,-0.578033 0.06924,-0.141512 0.0836,-0.220221 0.103512,-0.567258 0.01272,-0.22162 0.03877,-0.432176 0.05789,-0.467902 0.0427,-0.07978 0.144023,-0.133038 0.380116,-0.199791 0.361439,-0.102193 1.036827,-0.427001 1.585107,-0.762312 l 0.195532,-0.119581 1.22272,0.247921 c 1.468279,0.29771 2.019535,0.424194 2.712306,0.622331 2.041236,0.583804 2.81355,1.235633 2.167453,1.829316 -0.405035,0.372178 -1.401116,0.878207 -2.397474,1.217966 -0.730856,0.249222 -1.848938,0.525589 -2.844345,0.703064 -1.820679,0.324617 -2.519597,0.389698 -5.056201,0.470814 -1.062798,0.03399 -4.877415,0.03261 -5.539181,-0.002 z m 4.950549,-0.991803 c 0.128367,-0.03686 -1.580986,-0.06696 -2.450631,-0.04315 -0.453519,0.01241 -0.783828,0.03183 -0.734021,0.04313 0.121378,0.02756 3.08867,0.02758 3.184652,2e-5 z m 3.336286,-0.315398 c 0.116604,-0.0251 0.252443,-0.06333 0.301863,-0.08497 0.08622,-0.03775 0.08131,-0.03973 -0.121449,-0.04888 -0.340975,-0.01539 -1.101798,0.110238 -1.101798,0.181932 0,0.04459 0.647898,0.01078 0.921384,-0.04808 z m 1.908235,-0.446815 c 0.788657,-0.253299 1.612851,-0.637048 1.855313,-0.863843 0.181631,-0.169895 0.23543,-0.26716 0.23543,-0.425647 0,-0.170795 -0.03994,-0.255884 -0.200876,-0.427936 -0.306998,-0.328206 -1.175281,-0.748092 -1.338447,-0.64725 -0.06666,0.0412 0.06388,0.131574 0.32744,0.22669 0.379874,0.137092 0.626627,0.285356 0.857194,0.515053 0.227932,0.227072 0.2483,0.296061 0.13942,0.472234 -0.174418,0.282213 -0.709028,0.56661 -1.746839,0.929267 -0.499598,0.174582 -0.795175,0.306095 -0.772049,0.343512 0.02852,0.04615 0.251145,0.0039 0.643414,-0.12208 z M 6.9881217,20.874868 c 0,-0.04702 -0.093005,-0.08435 -0.456222,-0.183111 C 5.868311,20.511325 5.0168967,20.102604 4.6669723,19.796498 4.5820794,19.722236 4.4502439,19.580412 4.3740049,19.481333 L 4.235388,19.301191 4.4948628,19.032027 c 0.1427114,-0.148041 0.2594749,-0.290011 0.2594749,-0.315491 0,-0.07374 -0.1007549,-0.05407 -0.2445076,0.04774 -0.1505405,0.106614 -0.5705217,0.5102 -0.5705217,0.548249 0,0.04068 0.3127952,0.420265 0.4435099,0.538205 0.4006875,0.36153 1.0478672,0.668549 2.0317643,0.96386 0.2851709,0.08559 0.5735391,0.115901 0.5735391,0.06028 z"
       id="path20"
       transform="translate(0.36132813,4.2030396)" />
    <path
       style="fill:#ffffff;stroke:#f2f2f2;stroke-width:0.00301863"
       d="m 10.580288,22.683354 c -0.433482,-0.02725 -0.7770146,-0.05575 -0.8754019,-0.07261 -0.041506,-0.0071 -0.1693175,-0.02102 -0.2840256,-0.03091 -0.1147079,-0.0099 -0.2167918,-0.02306 -0.2268532,-0.02928 -0.010062,-0.0062 -0.1213165,-0.0198 -0.2472334,-0.03017 -0.1259166,-0.01038 -0.2615495,-0.02473 -0.3014063,-0.03189 -0.039857,-0.0072 -0.2694321,-0.04136 -0.5101676,-0.076 -0.5891557,-0.08477 -0.5533822,-0.0793 -0.8603087,-0.131417 -0.149422,-0.02537 -0.3192198,-0.05309 -0.3773284,-0.0616 -0.058109,-0.0085 -0.173571,-0.02842 -0.2565833,-0.04426 C 6.5579674,22.159386 6.4289211,22.13792 6.35421,22.12752 6.279499,22.11712 6.1776204,22.096557 6.127813,22.081824 6.0471209,22.057955 5.8466339,22.016579 5.6297395,21.979033 5.5068742,21.957763 5.1131287,21.867584 4.9505484,21.823478 4.8675362,21.800957 4.7588656,21.776313 4.7090583,21.768712 4.5951392,21.751329 3.8491275,21.553397 3.6676319,21.492401 3.5929209,21.467293 3.5046261,21.441114 3.4714212,21.434226 3.3774579,21.414733 2.539759,21.127699 2.473776,21.092386 2.4413951,21.075056 2.4081098,21.060493 2.3998085,21.060023 2.2632503,21.05229 1.0714633,20.45937 0.90301508,20.31536 0.88359518,20.29876 0.83752648,20.2648 0.80064025,20.2399 0.68656107,20.16288 0.49807347,19.977019 0.49807347,19.941551 c 0,-0.01853 -0.010855,-0.0337 -0.0241222,-0.0337 -0.0318438,0 -0.0911785,-0.168184 -0.1080331,-0.30622 -0.0158133,-0.129508 0.0863527,-0.370488 0.19651522,-0.463523 0.13609446,-0.114936 0.29748487,-0.226404 0.32780022,-0.226404 0.0167462,0 0.0304476,-0.01358 0.0304476,-0.03019 0,-0.0166 0.012806,-0.03019 0.0284577,-0.03019 0.0156518,0 0.15488589,-0.06014 0.30940929,-0.133655 0.2265271,-0.107764 0.8056404,-0.329776 0.9450495,-0.3623 0.016602,-0.0039 0.091314,-0.0252 0.1660245,-0.0474 0.074711,-0.02219 0.149422,-0.04381 0.1660245,-0.04804 0.016602,-0.0042 0.274695,-0.07167 0.5735391,-0.149885 0.5404137,-0.141431 0.6394047,-0.164669 0.9446712,-0.221764 0.087905,-0.01644 0.185303,-0.03798 0.2164392,-0.04786 0.06022,-0.01911 0.1410538,-0.0365 0.2878306,-0.06192 0.049807,-0.0086 0.1720618,-0.03054 0.2716765,-0.04869 0.2165134,-0.03946 0.7422447,-0.05777 0.784843,-0.02734 0.016602,0.01186 0.098105,0.04667 0.1811176,0.07734 0.083012,0.03068 0.2252038,0.103245 0.3159812,0.161261 0.2293248,0.146562 0.6493266,0.33708 1.042401,0.472846 0.182627,0.06308 0.3493569,0.128108 0.3705114,0.144509 0.021154,0.0164 0.046969,0.02132 0.057366,0.01092 0.030894,-0.03089 0.1605681,0.12863 0.162998,0.20052 0.00123,0.0365 0.00661,0.09353 0.011957,0.126737 0.00534,0.03321 0.01847,0.186886 0.029173,0.341515 0.036227,0.52341 0.2054261,0.745837 0.7329985,0.963591 0.3707894,0.153043 0.8963638,0.292489 1.336668,0.354647 0.993613,0.140268 1.812901,0.177735 3.411049,0.155989 1.165449,-0.01586 1.562503,-0.03322 2.173412,-0.09506 0.820934,-0.0831 1.493913,-0.244425 2.007387,-0.481221 0.435789,-0.200971 0.545262,-0.378294 0.589933,-0.955564 0.01594,-0.205951 0.03642,-0.406661 0.04551,-0.446022 0.02759,-0.119379 0.106866,-0.170309 0.421072,-0.270504 0.392369,-0.125119 0.954288,-0.393471 1.437648,-0.686568 0.1485,-0.09005 0.300085,-0.16362 0.336857,-0.163498 0.03677,1.23e-4 0.365702,0.06172 0.730956,0.136877 0.365253,0.07516 0.833895,0.169719 1.041426,0.21013 0.457223,0.08903 0.453694,0.08827 0.679191,0.145773 0.09962,0.0254 0.221869,0.0523 0.271676,0.05977 0.04981,0.0075 0.335068,0.07733 0.633912,0.155244 0.298844,0.07791 0.563729,0.146242 0.588632,0.151843 0.0249,0.0056 0.08299,0.02477 0.129081,0.0426 0.04609,0.01783 0.114009,0.0383 0.150931,0.04549 0.03692,0.0072 0.155425,0.04674 0.263341,0.08791 0.107916,0.04116 0.203003,0.07528 0.211304,0.07582 0.0083,5.38e-4 0.05585,0.01687 0.105652,0.03628 0.04981,0.01942 0.104143,0.03809 0.120745,0.0415 0.0166,0.0034 0.09644,0.03602 0.177409,0.07247 0.08097,0.03645 0.157055,0.06627 0.169075,0.06627 0.01202,0 0.0884,0.03628 0.169733,0.08062 0.08133,0.04434 0.194799,0.105414 0.252143,0.135722 0.252538,0.133479 0.490387,0.36736 0.560624,0.551273 0.106691,0.279368 -0.02463,0.501353 -0.46956,0.793726 -0.157237,0.103324 -0.299468,0.198946 -0.316071,0.212495 -0.06575,0.05365 -0.864292,0.432193 -1.177264,0.55807 -0.182627,0.07345 -0.359217,0.144603 -0.392422,0.158113 -0.03321,0.01351 -0.07396,0.02871 -0.09056,0.03378 -0.220711,0.06737 -0.975373,0.295396 -1.101799,0.332909 -0.140057,0.04156 -0.736867,0.185131 -0.996147,0.23964 -0.04151,0.0087 -0.204512,0.04324 -0.362235,0.07671 -0.157723,0.03346 -0.36148,0.07283 -0.452794,0.08749 -0.09131,0.01466 -0.199984,0.03435 -0.24149,0.04375 -0.04151,0.0094 -0.168737,0.03066 -0.282735,0.04722 -0.113998,0.01657 -0.215877,0.03514 -0.226397,0.04128 -0.01052,0.0061 -0.09366,0.02001 -0.184747,0.03084 -0.09109,0.01083 -0.294848,0.03849 -0.452794,0.06148 -0.157946,0.02298 -0.436597,0.057 -0.619224,0.07559 -0.182627,0.01859 -0.386384,0.03938 -0.452794,0.0462 -0.06641,0.0068 -0.249791,0.02102 -0.407515,0.03155 -0.157723,0.01053 -0.354688,0.02413 -0.437701,0.03021 -0.08301,0.0061 -0.429399,0.01974 -0.769749,0.03034 -0.340351,0.0106 -0.652779,0.02593 -0.694285,0.03406 -0.124213,0.02434 -5.450248,0.03203 -5.82595,0.0084 z m 4.875083,-0.994518 c 0.07367,-0.03166 -0.04481,-0.03521 -1.418755,-0.04258 -1.220191,-0.0065 -1.806023,0.0083 -1.720617,0.04358 0.08036,0.0332 3.061998,0.03225 3.139372,-0.001 z m 3.103403,-0.272826 c 0.267033,-0.03855 0.591349,-0.1204 0.612475,-0.154583 0.02167,-0.03507 -0.356659,-0.03185 -0.642241,0.0055 -0.312046,0.04077 -0.643642,0.119863 -0.643642,0.153517 0,0.03668 0.407265,0.03402 0.673408,-0.0044 z m 1.899731,-0.410362 c 0.404244,-0.09985 1.072021,-0.359482 1.596799,-0.620849 0.648419,-0.322947 0.867565,-0.628488 0.701609,-0.978214 -0.06613,-0.139349 -0.332907,-0.377636 -0.595347,-0.531758 -0.394211,-0.231507 -0.910431,-0.390317 -0.910431,-0.280084 0,0.03345 0.130527,0.101986 0.558446,0.293233 0.157723,0.07049 0.304719,0.145417 0.326658,0.166502 0.02194,0.02109 0.05128,0.03834 0.06521,0.03834 0.03543,0 0.342404,0.300532 0.403269,0.394806 0.04978,0.0771 0.05879,0.239106 0.01331,0.239106 -0.01298,0 -0.0236,0.01643 -0.0236,0.03651 0,0.05956 -0.271477,0.290849 -0.443789,0.378098 -0.08797,0.04454 -0.159937,0.09173 -0.159937,0.104864 0,0.01313 -0.01783,0.02388 -0.03963,0.02388 -0.0218,0 -0.113066,0.03543 -0.202821,0.07873 -0.172666,0.0833 -0.296309,0.136755 -0.346181,0.149674 -0.0166,0.0043 -0.213568,0.07674 -0.437701,0.160976 -0.224133,0.08424 -0.41695,0.153341 -0.428482,0.153567 -0.06593,0.0013 -0.478464,0.215282 -0.463061,0.240205 0.01971,0.03189 0.10806,0.02099 0.385683,-0.04758 z M 6.981546,20.86626 C 6.9751622,20.845507 6.8076284,20.776514 6.6092487,20.712943 6.4108688,20.649371 6.1195118,20.547969 5.9617885,20.487605 5.8040653,20.427242 5.668227,20.376274 5.6599258,20.374344 5.6418732,20.370147 5.2298889,20.161915 5.1014798,20.092085 4.8147615,19.936166 4.5246769,19.68521 4.318099,19.414373 L 4.234141,19.304298 4.4942395,19.030979 c 0.2598208,-0.273027 0.3094977,-0.36077 0.2042551,-0.36077 -0.080703,0 -0.2889868,0.159139 -0.5415378,0.413761 l -0.2200528,0.221858 0.054028,0.09217 c 0.099207,0.169251 0.5043308,0.564239 0.7181263,0.700159 0.4147841,0.263698 1.0898188,0.542856 1.7658968,0.730278 0.2894474,0.08024 0.5250501,0.09783 0.5065909,0.03782 z"
       id="path21"
       transform="translate(0.36132813,4.2030396)" />
    <path
       style="fill:#ffffff;stroke:#f2f2f2;stroke-width:0.00301863"
       d="M 12.919724,23.376837 C 9.296513,23.282185 5.6181136,22.72271 3.0431862,21.87464 2.3176159,21.635668 1.3213755,21.172759 0.81364983,20.838671 0.55967979,20.671557 0.4221354,20.541757 0.49902024,20.541757 c 0.0440652,0 0.26212124,0.112981 0.40656789,0.210653 0.19988487,0.135159 0.73114757,0.409028 1.13198517,0.583545 1.4473031,0.630128 3.6971948,1.166193 6.5422071,1.558763 1.3534383,0.186755 2.3129556,0.226313 5.4870216,0.226215 3.676652,-1.14e-4 4.327779,-0.04201 6.550421,-0.421485 2.611845,-0.445923 4.102404,-0.905193 5.478808,-1.688126 0.392404,-0.223209 0.501841,-0.251645 0.305781,-0.07945 -0.252077,0.221389 -1.062621,0.654771 -1.724535,0.922077 -1.521031,0.614248 -4.037668,1.133457 -6.656073,1.373219 -0.987076,0.09038 -3.327105,0.193192 -4.029867,0.17705 -0.107916,-0.0025 -0.590142,-0.0148 -1.071613,-0.02738 z"
       id="path22"
       transform="translate(0.36132813,4.2030396)" />
    <path
       style="fill:#ececec;stroke:#f2f2f2;stroke-width:0.000390625"
       d="m 20.235665,13.374023 c 0.0379,-0.05682 0.06213,-0.09935 0.09226,-0.162004 0.04778,-0.09934 0.07746,-0.184938 0.09586,-0.276472 0.0086,-0.04278 0.01423,-0.05469 0.02582,-0.05469 0.0043,0 0.208984,0.276343 0.210069,0.283679 2.57e-4,0.0017 -0.01799,0.01349 -0.04055,0.0261 -0.126583,0.07076 -0.399537,0.217567 -0.40452,0.217567 -9.67e-4,0 0.0085,-0.01538 0.02104,-0.03418 z"
       id="path23"
       transform="translate(0.36132813,4.2030396)" />
    <path
       style="fill:#ececec;stroke:#f2f2f2;stroke-width:0.003125"
       d="M 9.8125,22.608176 C 8.5445887,22.466279 7.9639459,22.385997 6.859375,22.199867 6.3109912,22.10746 6.1899356,22.083189 5.234375,21.874064 3.8397719,21.568856 2.6221764,21.18347 1.796875,20.786048 1.4134476,20.60141 1.0100883,20.389063 0.984375,20.358312 0.97578125,20.348034 0.90413444,20.295675 0.82515984,20.241959 0.4690791,19.999762 0.31185795,19.664367 0.42048042,19.378668 0.4704973,19.247114 0.66241366,19.059743 0.88368706,18.926432 1.0673909,18.815757 1.8022307,18.484375 1.8639511,18.484375 c 0.012433,0 0.062193,-0.0164 0.110577,-0.03644 0.048385,-0.02004 0.095003,-0.03834 0.1035969,-0.04066 0.00859,-0.0023 0.1,-0.02975 0.203125,-0.06095 0.3272818,-0.09904 1.3665197,-0.365348 1.59375,-0.408399 0.1203125,-0.02279 0.303125,-0.06282 0.40625,-0.08894 0.3019037,-0.07647 0.8017462,-0.145859 1.0506041,-0.145842 0.2602,1.8e-5 0.4378456,0.05607 0.7412818,0.233913 0.2741369,0.160667 0.7203957,0.36469 1.0518641,0.480897 0.4015384,0.140771 0.5018959,0.187688 0.5530687,0.258556 0.036336,0.05032 0.06427,0.191138 0.088594,0.446609 0.060123,0.631465 0.1795297,0.824468 0.639865,1.03425 0.5887869,0.268318 1.2757056,0.419391 2.2809723,0.501647 0.120312,0.0098 0.275,0.02468 0.34375,0.03296 0.235584,0.02839 2.655886,0.03617 3.296875,0.01059 1.31317,-0.0524 2.258073,-0.204386 2.921054,-0.469856 0.635267,-0.254374 0.730304,-0.388884 0.81036,-1.146941 0.02884,-0.273076 0.0557,-0.399827 0.09359,-0.441701 0.02923,-0.0323 0.161422,-0.09726 0.293758,-0.144364 0.350201,-0.124644 0.859888,-0.352425 1.146863,-0.512537 0.552087,-0.308026 0.628289,-0.345155 0.709775,-0.345837 0.09274,-7.77e-4 1.76153,0.32444 2.3371,0.455458 1.184753,0.269689 2.238247,0.573379 2.714826,0.7826 0.09237,0.04055 0.178552,0.07373 0.191509,0.07373 0.05075,0 0.554345,0.294296 0.683797,0.399605 0.275305,0.223958 0.382663,0.507988 0.271819,0.719134 -0.164957,0.314226 -1.033451,0.833939 -2.105204,1.25977 -0.337109,0.13394 -1.364036,0.445267 -1.881747,0.570476 -0.715874,0.173134 -2.110198,0.439447 -2.625,0.501369 -0.737437,0.0887 -0.974753,0.114723 -1.3125,0.14392 -0.214844,0.01857 -0.573438,0.04143 -0.796875,0.05079 -0.223438,0.0094 -0.610156,0.02802 -0.859375,0.04145 -0.249219,0.01344 -1.838281,0.02444 -3.53125,0.02446 -2.751287,2.5e-5 -3.131216,-0.0059 -3.5781254,-0.05593 z m 5.461128,-0.897829 c 0.116525,-0.0069 0.203216,-0.02538 0.193469,-0.04115 -0.02125,-0.03439 -3.045043,-0.03935 -3.128604,-0.0051 -0.03775,0.01546 0.01192,0.02957 0.145882,0.04146 0.229,0.02032 2.464167,0.02418 2.789253,0.0048 z m 3.570122,-0.333684 c 0.306958,-0.0722 0.328125,-0.07979 0.328125,-0.11772 0,-0.05135 -0.752127,-0.0047 -1.02954,0.06391 -0.127966,0.03163 -0.238791,0.07589 -0.246278,0.09835 -0.01889,0.05667 0.651299,0.02518 0.947693,-0.04454 z m 1.561861,-0.346397 c 0.434111,-0.100677 1.377246,-0.475247 1.825122,-0.724854 0.32844,-0.183044 0.597392,-0.476628 0.597392,-0.652104 0,-0.363907 -0.52711,-0.811929 -1.225755,-1.041841 -0.210242,-0.06919 -0.354231,-0.07647 -0.350256,-0.01772 0.0012,0.01719 0.223872,0.14375 0.49491,0.28125 0.398149,0.201985 0.527898,0.284921 0.67556,0.431823 0.215558,0.214449 0.252855,0.322137 0.157802,0.455627 -0.147257,0.206802 -0.487356,0.429322 -0.971011,0.635309 -0.234334,0.0998 -0.309703,0.128565 -0.6875,0.262365 -0.829358,0.293725 -1.136604,0.514008 -0.516264,0.370142 z M 6.9753422,20.871441 c 0.00627,-0.01914 -0.069988,-0.06392 -0.1694685,-0.0995 C 6.7063927,20.736361 6.4210937,20.634571 6.171875,20.54574 5.7996341,20.41306 5.0980422,20.100463 4.96875,20.009684 4.6952544,19.817656 4.2487797,19.359566 4.2721887,19.295 c 0.00498,-0.01375 0.079616,-0.09981 0.1658494,-0.191246 0.2080122,-0.220571 0.3275869,-0.367682 0.3275869,-0.403027 0,-0.04774 -0.1370181,-0.03252 -0.2196091,0.02439 -0.095444,0.06577 -0.3470803,0.296446 -0.5007734,0.459053 -0.099162,0.104914 -0.1101997,0.130784 -0.080123,0.187796 0.1522212,0.288553 0.5898359,0.667348 1.0404981,0.900644 0.7820815,0.404864 1.9199334,0.750788 1.969725,0.598826 z"
       id="path24"
       transform="translate(0.36132813,4.2030396)" />
    <path
       style="fill:#e6e6e6;stroke:#f2f2f2;stroke-width:0.003125"
       d="M 12.640625,23.370129 C 9.975979,23.255564 7.9989072,23.034231 5.953125,22.621466 4.75357,22.379439 3.160335,21.952053 2.65625,21.737079 2.621875,21.722419 2.4953125,21.671332 2.375,21.623553 1.8621721,21.419895 0.83094981,20.894969 0.80208334,20.822886 c -0.005729,-0.01431 -0.0239008,-0.02601 -0.0403815,-0.02601 -0.0344629,0 -0.0942719,-0.04548 -0.20444602,-0.155483 -0.14767658,-0.14744 -0.007157,-0.100117 0.3640233,0.122593 1.04737298,0.628431 2.24951728,1.069439 4.04747088,1.484821 1.4317053,0.330767 3.6136781,0.688028 4.671875,0.764939 0.2492187,0.01811 0.544531,0.04028 0.65625,0.04926 0.490414,0.03942 1.850229,0.06199 3.734375,0.06199 2.664227,0 3.906949,-0.04048 4.84375,-0.157769 0.822399,-0.102967 2.402087,-0.373823 3.453125,-0.592078 0.261254,-0.05425 1.079391,-0.268906 1.453125,-0.381257 0.8351,-0.251045 1.391763,-0.480364 2.109375,-0.868964 0.266406,-0.144263 0.5125,-0.272447 0.546875,-0.284851 0.0623,-0.02248 0.0623,-0.02233 7.25e-4,0.04772 -0.170711,0.19421 -0.98756,0.64426 -1.705188,0.939488 -0.719966,0.29619 -2.11505,0.696211 -2.992868,0.858165 -0.132093,0.02437 -0.422982,0.08066 -0.646419,0.125078 -1.084853,0.215681 -2.747616,0.409889 -4.453125,0.520119 -0.490506,0.0317 -3.49186,0.06132 -4,0.03947 z"
       id="path25"
       transform="translate(0.36132813,4.2030396)" />
    <path
       style="fill:#e6e6e6;stroke:#f2f2f2;stroke-width:0.003125"
       d="m 12.515625,23.353424 c -0.09453,-0.01337 -0.277344,-0.02578 -0.40625,-0.02758 -0.216219,-0.003 -0.445444,-0.01468 -1.0625,-0.05402 -0.128906,-0.0082 -0.316051,-0.01848 -0.415877,-0.0228 -0.09983,-0.0043 -0.19006,-0.01641 -0.200521,-0.02688 -0.01046,-0.01046 -0.07705,-0.01902 -0.147979,-0.01902 -0.138975,0 -1.1198915,-0.09745 -1.704373,-0.169319 -0.1976563,-0.0243 -0.3804688,-0.04509 -0.40625,-0.04618 -0.025781,-0.0011 -0.3045113,-0.04413 -0.6193997,-0.09563 -0.3148887,-0.0515 -0.5820762,-0.09174 -0.59375,-0.08941 -0.011674,0.0023 -0.042319,-0.0039 -0.0681,-0.0138 -0.089793,-0.03453 -0.9155556,-0.180509 -0.9314075,-0.164657 -0.00878,0.0088 -0.031323,0.0038 -0.050092,-0.01113 C 5.8903562,22.598078 5.7273437,22.55511 5.546875,22.5175 5.3664062,22.479889 4.88125,22.363579 4.46875,22.259033 4.05625,22.154487 3.6976562,22.067498 3.671875,22.065724 c -0.025781,-0.0018 -0.053906,-0.01098 -0.0625,-0.02045 -0.00859,-0.0095 -0.1492188,-0.05663 -0.3125,-0.104793 C 2.9456664,21.836887 2.2122508,21.551069 1.9127685,21.401078 1.7960411,21.342618 1.6882578,21.302375 1.67325,21.31165 1.658242,21.32095 1.641246,21.31675 1.635482,21.30225 1.629722,21.28783 1.4984379,21.20804 1.3437504,21.124943 0.93040715,20.902905 0.51845752,20.627338 0.55109021,20.594705 c 0.008402,-0.0084 0.12690716,0.04931 0.26334372,0.128253 0.13643656,0.07894 0.26564457,0.144265 0.28712897,0.145163 0.021484,8.98e-4 0.039063,0.01234 0.039063,0.02542 0,0.02524 0.7329054,0.395185 0.8125,0.410125 0.025781,0.0048 0.053906,0.0167 0.0625,0.02635 0.02691,0.03022 0.4376269,0.195993 0.4855991,0.195993 0.025108,0 0.045651,0.0091 0.045651,0.02033 0,0.01673 0.2705528,0.113985 0.3897476,0.140105 0.01767,0.0039 0.068803,0.02216 0.1136295,0.04063 0.3495292,0.144063 1.9623426,0.569312 2.4634579,0.649538 0.044022,0.007 0.1759253,0.03416 0.2931184,0.06024 0.1171932,0.02608 0.2578182,0.05443 0.3125,0.06299 0.054682,0.0086 0.2330153,0.04186 0.3962966,0.074 0.1632812,0.03213 0.3179687,0.05958 0.34375,0.06099 0.025781,0.0014 0.1501062,0.02392 0.2762775,0.05001 0.1261712,0.0261 0.2979631,0.05382 0.3817594,0.0616 0.083796,0.0078 0.1649606,0.02194 0.1803653,0.03146 0.015404,0.0095 0.1108,0.02615 0.2119903,0.03696 0.1011903,0.01081 0.2332012,0.02642 0.2933575,0.0347 0.060156,0.0083 0.1445312,0.01867 0.1875,0.0231 0.042969,0.0044 0.10625,0.01677 0.140625,0.02743 0.034375,0.01066 0.146875,0.02722 0.25,0.0368 0.103125,0.0096 0.3703125,0.03798 0.59375,0.06313 0.4393012,0.04945 0.892237,0.07998 1.53125,0.103214 0.585583,0.02129 5.597684,0.02066 6.171875,-7.75e-4 0.75085,-0.02803 1.290739,-0.05781 1.314489,-0.07249 0.01189,-0.0073 0.145968,-0.02171 0.297961,-0.03192 0.151992,-0.01021 0.287335,-0.02535 0.300762,-0.03365 0.01343,-0.0083 0.09821,-0.02128 0.188413,-0.02884 0.0902,-0.0076 0.325719,-0.04159 0.523375,-0.07562 0.197656,-0.03402 0.415989,-0.06901 0.485184,-0.07775 0.06919,-0.0087 0.195757,-0.03035 0.28125,-0.04803 0.08549,-0.01768 0.21114,-0.03992 0.279218,-0.04941 0.06808,-0.0095 0.187608,-0.03053 0.265625,-0.04674 0.07802,-0.01621 0.191067,-0.03656 0.251223,-0.0452 0.366706,-0.05273 1.611316,-0.323006 1.75,-0.380028 0.02578,-0.0106 0.06094,-0.02201 0.07813,-0.02535 0.01719,-0.0033 0.03828,-0.0094 0.04687,-0.01344 0.0086,-0.0041 0.04375,-0.01104 0.07813,-0.01554 0.189047,-0.02473 1.241507,-0.355916 1.269119,-0.399368 0.01052,-0.01655 0.02833,-0.02782 0.03958,-0.02505 0.04089,0.01007 0.206923,-0.0365 0.206923,-0.05803 0,-0.01216 0.02461,-0.02413 0.05469,-0.0266 0.09365,-0.0077 0.944016,-0.412231 1.40125,-0.666632 0.096,-0.05341 0.180728,-0.09094 0.188281,-0.08338 0.04218,0.04219 -0.490544,0.365054 -1.066093,0.646123 -0.394178,0.192496 -1.240686,0.532576 -1.32566,0.532576 -0.01854,0 -0.03372,0.01489 -0.03372,0.03309 0,0.0182 -0.01242,0.02542 -0.02759,0.01604 -0.03367,-0.02081 -0.796303,0.203729 -0.811017,0.238782 -0.0058,0.01373 -0.02179,0.01798 -0.0356,0.0094 -0.01382,-0.0085 -0.190952,0.02784 -0.393636,0.08084 -0.452789,0.118405 -1.564956,0.342837 -2.154032,0.434678 -0.240625,0.03752 -0.458594,0.0753 -0.484375,0.08395 -0.02578,0.0087 -0.09609,0.01933 -0.15625,0.02371 -0.212644,0.01548 -1.016276,0.11711 -1.0625,0.134371 -0.02578,0.0096 -0.06024,0.01433 -0.07657,0.01046 -0.01633,-0.0039 -0.171021,0.008 -0.34375,0.02637 -1.188507,0.126482 -1.903149,0.160076 -3.751554,0.176351 -1.03125,0.0091 -1.896094,0.01988 -1.921875,0.02401 -0.02578,0.0041 -0.124219,-0.0034 -0.21875,-0.01681 z"
       id="path26"
       transform="translate(0.36132813,4.2030396)" />
    <path
       style="fill:#ececec;stroke:#f2f2f2;stroke-width:0.003125"
       d="M 10.078125,22.619502 C 7.6118184,22.368727 5.3804216,21.961321 3.578125,21.432735 2.83881,21.215906 2.3108264,21.010528 1.625,20.673001 0.79735731,20.265678 0.51325754,20.035031 0.42016306,19.694849 0.36484315,19.492702 0.41130442,19.364946 0.61376971,19.16248 0.76528075,19.010969 0.87098809,18.944508 1.2417239,18.767668 1.8985118,18.454383 2.5818846,18.244932 3.9383534,17.941162 4.7021609,17.770114 4.98257,17.726789 5.334435,17.725456 c 0.2599894,-9.85e-4 0.2849281,0.0053 0.5677094,0.141964 0.1626759,0.07865 0.3039768,0.134792 0.3140025,0.124767 0.010025,-0.01003 0.018228,-0.0017 0.018228,0.01849 0,0.04369 0.5260712,0.293086 0.5660772,0.268361 0.01522,-0.0094 0.027673,-0.0038 0.027673,0.01252 0,0.01629 0.1441406,0.08206 0.3203125,0.146141 0.5370516,0.195359 0.5534703,0.213308 0.6001153,0.656049 0.031365,0.29771 0.082177,0.522518 0.1447944,0.640625 0.061614,0.116214 0.2782,0.345503 0.2790062,0.295371 2.631e-4,-0.01636 0.01081,-0.01398 0.023437,0.0053 0.033891,0.05171 0.4115344,0.235548 0.4434069,0.21585 0.015037,-0.0093 0.032056,-0.0043 0.037821,0.0111 0.00577,0.0154 0.1261675,0.06437 0.2675616,0.108829 0.5384575,0.169304 1.229573,0.273603 2.221754,0.335294 0.631426,0.03926 3.411677,0.01742 3.911791,-0.03073 0.524795,-0.05053 0.93748,-0.105861 0.937744,-0.125736 1.34e-4,-0.01011 0.06693,-0.02096 0.148438,-0.02412 0.309432,-0.01197 1.351318,-0.335069 1.351318,-0.419059 0,-0.01558 0.01055,-0.02667 0.02344,-0.02463 0.100763,0.01591 0.294966,-0.143741 0.381037,-0.313242 0.06738,-0.13269 0.139198,-0.456763 0.115127,-0.519491 -0.0093,-0.02418 -0.0053,-0.05114 0.0089,-0.0599 0.01418,-0.0088 0.03567,-0.116335 0.04776,-0.23905 0.02713,-0.275358 0.07336,-0.328262 0.393569,-0.450403 0.437856,-0.167016 0.857054,-0.361422 1.282424,-0.594734 0.328997,-0.180452 0.453324,-0.233132 0.5502,-0.233132 0.229835,0 2.111924,0.378715 3.053318,0.614391 1.236114,0.309457 2.064017,0.596457 2.534841,0.878723 0.451277,0.270548 0.609375,0.461397 0.609375,0.735616 0,0.117177 -0.01956,0.159691 -0.132494,0.287992 -0.324253,0.36837 -1.456843,0.964739 -2.430006,1.279528 -0.909838,0.294304 -1.433754,0.431231 -2.375,0.620708 -0.882092,0.17757 -1.320327,0.251664 -1.953125,0.330223 -1.562573,0.193986 -2.36265,0.22196 -6.1875,0.216341 -1.7875,-0.0026 -3.299219,-0.0098 -3.359375,-0.0159 z m 5.288442,-0.905084 c 0.06411,-0.0106 0.10922,-0.03116 0.10024,-0.04569 -0.02228,-0.03604 -3.138682,-0.03404 -3.138682,0.002 0,0.01553 0.03867,0.03409 0.08594,0.04125 0.140012,0.02121 2.825525,0.02342 2.952505,0.0024 z m 3.568559,-0.345406 c 0.119007,-0.03108 0.222443,-0.07502 0.229859,-0.09765 0.01324,-0.04039 -0.01611,-0.0407 -0.727485,-0.0078 -0.205493,0.0095 -0.546875,0.11136 -0.546875,0.163179 0,0.04716 0.81549,0.0021 1.044501,-0.0577 z m 1.512206,-0.353549 c 0.0054,-0.01517 0.02731,-0.02087 0.04868,-0.01267 0.07286,0.02796 1.363363,-0.459464 1.363363,-0.514946 0,-0.01178 0.02774,-0.02351 0.06165,-0.02607 0.16113,-0.01214 0.813353,-0.47808 0.813353,-0.581052 0,-0.0142 0.02109,-0.04691 0.04687,-0.07269 0.02578,-0.02578 0.04687,-0.09768 0.04687,-0.159777 0,-0.346631 -0.440066,-0.749494 -1.088044,-0.996064 -0.269048,-0.102378 -0.45453,-0.131592 -0.488324,-0.07691 -0.0097,0.01562 0.189905,0.143694 0.443468,0.284599 0.526155,0.292385 0.725716,0.434068 0.836449,0.593856 0.118349,0.170778 0.102628,0.237891 -0.101987,0.435355 -0.22068,0.212969 -0.635742,0.432823 -1.242187,0.657976 -0.880445,0.326879 -1.129427,0.44208 -1.090742,0.504675 0.02413,0.03905 0.335194,0.0069 0.350574,-0.03628 z M 6.9749428,20.872572 C 6.9887066,20.830626 6.9088962,20.79381 6.4375,20.62465 5.9493203,20.449468 5.6022287,20.307112 5.2270281,20.128189 4.9620319,20.001819 4.8824528,19.943432 4.6098406,19.675356 4.4377094,19.50609 4.2969506,19.34817 4.2970431,19.324424 c 9.25e-5,-0.02375 0.1055613,-0.161079 0.234375,-0.305185 0.1288138,-0.144106 0.2342069,-0.281215 0.2342069,-0.304687 0,-0.02608 -0.034611,-0.04268 -0.088981,-0.04268 -0.1459012,0 -0.7251428,0.521851 -0.7224112,0.650835 0.00175,0.08279 0.065041,0.176796 0.2443731,0.362993 0.2055856,0.213456 0.3953831,0.366141 0.4220225,0.339502 0.010998,-0.011 0.019997,-0.0043 0.019997,0.01497 0,0.07489 0.9663503,0.56244 1.0330603,0.521211 0.016192,-0.01001 0.02944,-0.0046 0.02944,0.01203 0,0.03527 0.3713869,0.166885 0.4076547,0.14447 0.013479,-0.0083 0.029224,-0.0015 0.034989,0.01515 0.00577,0.01666 0.1370441,0.06526 0.2917316,0.108008 0.2857747,0.07897 0.51742,0.09256 0.5374428,0.03154 z"
       id="path27"
       transform="translate(0.36132813,4.2030396)" />
    <path
       style="fill:#ececec;stroke:#f2f2f2;stroke-width:0.000552427"
       d="m 11.003691,14.86297 c -0.159647,-0.02254 -0.335069,-0.0493 -0.337219,-0.05145 -0.0026,-0.0026 0.117997,-0.313741 0.121531,-0.31341 0.002,1.89e-4 0.0105,3.92e-4 0.01885,4.51e-4 0.01298,9.3e-5 0.01937,0.0067 0.04386,0.04558 0.0626,0.09928 0.173214,0.216129 0.282307,0.298226 0.06851,0.05155 0.07854,0.04995 -0.129334,0.02061 z"
       id="path28"
       transform="translate(0.36132813,4.2030396)" />
    <path
       style="fill:#ececec;stroke:#f2f2f2;stroke-width:0.000552427"
       d="m 10.159136,14.727068 c -0.2952199,-0.05588 -0.6513307,-0.129837 -0.8697185,-0.180624 -0.056969,-0.01325 -0.075933,-0.01954 -0.066393,-0.02204 0.00787,-0.0021 0.058754,0.0068 0.1239415,0.02151 0.060823,0.01375 0.1690064,0.0374 0.2404076,0.05254 0.071401,0.01514 0.1385211,0.02983 0.1491553,0.03264 0.026746,0.0071 0.1445686,0.02897 0.2962161,0.05507 0.122572,0.02109 0.201371,0.02911 0.209239,0.02128 0.01023,-0.01018 0.145221,-1.212138 0.28002,-2.493284 0.01311,-0.124573 0.02456,-0.220267 0.02545,-0.212655 8.9e-4,0.0076 -0.06188,0.625519 -0.139488,1.373128 -0.07761,0.747608 -0.141105,1.362239 -0.141105,1.365846 0,0.0036 -0.0019,0.0063 -0.0041,0.006 -0.0023,-3.17e-4 -0.04889,-0.009 -0.10358,-0.0194 z"
       id="path29"
       transform="translate(0.36132813,4.2030396)" />
    <path
       style="fill:#ececec;stroke:#f2f2f2;stroke-width:0.00625"
       d="M 4.4538579,12.787284 C 4.0503548,12.58998 3.7041015,12.412435 3.684406,12.392739 c -0.019696,-0.0197 0.1189029,-0.344298 0.3079964,-0.72134 0.3299738,-0.657949 0.3538827,-0.688088 0.5942558,-0.749101 0.2923892,-0.07422 0.2358401,-0.214941 0.4790107,1.192043 0.088103,0.509763 0.1515569,0.95043 0.141009,0.97926 -0.010548,0.02883 -0.3493168,-0.109012 -0.75282,-0.306317 z"
       id="path30"
       transform="translate(0.36132813,4.2030396)" />
  </g>
</svg>
