<?xml version="1.0" encoding="UTF-8" standalone="no"?>
<!-- Created with Inkscape (http://www.inkscape.org/) -->

<svg
   width="31.510967"
   height="24.782928"
   viewBox="0 0 31.510967 24.782928"
   version="1.1"
   id="svg1"
   inkscape:export-filename="coffeslogo.svg"
   inkscape:export-xdpi="94.445038"
   inkscape:export-ydpi="94.445038"
   xmlns:inkscape="http://www.inkscape.org/namespaces/inkscape"
   xmlns:sodipodi="http://sodipodi.sourceforge.net/DTD/sodipodi-0.dtd"
   xmlns="http://www.w3.org/2000/svg"
   xmlns:svg="http://www.w3.org/2000/svg">
  <sodipodi:namedview
     id="namedview1"
     pagecolor="#ffffff"
     bordercolor="#999999"
     borderopacity="1"
     inkscape:showpageshadow="2"
     inkscape:pageopacity="0"
     inkscape:pagecheckerboard="0"
     inkscape:deskcolor="#d1d1d1"
     inkscape:document-units="px" />
  <defs
     id="defs1" />
  <g
     inkscape:label="Layer 1"
     inkscape:groupmode="layer"
     id="layer1"
     transform="translate(-0.36132813,-4.2030396)">
    <g
       transform="matrix(0.01113057,0,0,-0.0132757,-0.75140534,29.654706)"
       fill="#000000"
       stroke="none"
       id="g11">
      <path
         id="path1"
         d="m 1113.333,1917.1555 c -71.9219,0.094 -129.27757,-0.8395 -158.27755,-3.0895 -205.99979,-17 -388.99313,-38.1126 -487.99303,-58.1126 -128.99987,-26.9999 -239.12219,-71.9565 -258.12217,-106.9564 -23.99997,-45 7.97624,-361.0019 55.97619,-567.0017 C 315.91639,969.99554 427.00482,750.07 529.00472,657.07009 554.0047,635.07011 564.95792,618.02352 557.95792,616.02352 550.95793,614.02353 496.98653,605.045 438.98659,597.04501 312.98672,578.04502 188.99588,539.94766 136.99593,504.9477 101.99597,480.94772 99.970933,475.97389 99.970933,426.97394 c 0,-44.99996 4.075857,-57.03347 28.075827,-80.03345 78.99992,-75.99992 329.96593,-144.87476 699.96556,-192.87472 187.99978,-24.99997 746.94638,-30.00416 951.94618,-10.00418 370.9996,36.99997 616.0543,98.86853 705.0543,177.86845 30.9999,25.99997 34.9193,36.09108 34.9193,77.09104 0,52.99994 -16.9295,75.01618 -84.9294,109.01614 -77.9999,38.99996 -361.9871,101.95437 -457.987,101.95437 h -40.0081 l 47.0271,43.98897 c 44.9999,40.99996 50.8846,44.02091 123.8846,50.02091 233.9997,20.99997 468.102,134.97427 593.1019,289.97411 98.9999,121.99992 149.9076,252.98412 150.9076,383.98402 2,187.9998 -78.9449,290.9846 -247.9447,314.9845 -85.9999,12 -180.9617,-0.9848 -244.9616,-33.9848 -21,-9.9999 -40.0609,-18.9785 -41.0609,-18.9785 -2,0 -1,23.021 0,50.0209 1.7834,20.0632 1.7174,32.29 -0.8774,42.5178 -1.3462,2.7329 -2.251,5.6073 -2.9831,8.533 -0.047,0.099 -0.1274,0.1954 -0.1754,0.2942 -4.2538,8.7524 -11.1062,16.6264 -22.9871,27.6586 -57,53 -229.8937,95.9649 -515.8934,126.9649 -99.7499,11.2499 -445.9468,20.904 -661.7122,21.1853 z m 95.1068,-31.1895 c 214.16,-1.1328 463.4805,-9.1632 566.6054,-21.0382 265.9997,-29 445.9063,-71.901 492.9063,-114.901 28,-27 28.0867,-34.9654 -4.9133,-57.9654 -210.9998,-146.9998 -1370.09607,-179.0804 -1868.09557,-52.0806 -95.9999,25 -159.85676,58.0356 -159.85676,85.0356 0,60.9999 273.87116,124.9177 664.87077,154.9176 64.12493,4.875 179.98726,6.7117 308.48316,6.032 z m -988.44469,-206.9983 32.9891,-18.9785 c 16.99998,-10 61.03713,-27.9869 97.03709,-38.9869 426.99957,-135.9999 1678.9284,-111.9554 1907.9282,36.0445 13,8 26.1287,12.0042 29.1287,10.0042 6.9999,-7 -14.1646,-212.0486 -33.1646,-327.0485 -71,-423.99954 -243.9554,-708.05963 -473.9551,-776.05956 -170.9999,-50.99995 -454.0255,-78.99732 -648.0253,-63.99733 -120.9999,8.99999 -297.89915,37.99526 -369.89908,58.99524 -21.99998,6.99999 -29.97014,6.11727 -25.97015,-0.88273 9,-14.99998 -31.14082,-0.98742 -89.14076,30.01255 -65.99993,35.99996 -182.83703,161.98942 -235.83698,255.98932 -51.99995,91.99991 -113.02823,261.90091 -140.0282,395.90071 -23.99998,110.9999 -51.06292,324.0757 -51.06292,392.0756 z m 2295.55009,-12.3581 c 55.5468,-0.4687 133.2389,-9.6267 162.4889,-21.6267 168.9998,-70.9999 193.9401,-334.9102 51.9403,-558.91 -48,-75.9999 -163.9089,-188.0983 -243.9088,-235.09825 -98.9999,-58.99994 -311.0129,-120.93289 -412.0128,-120.93289 -23,0 -23.1206,0.90158 10.8794,45.90153 19,24.99998 35.0948,50.023 35.0948,55.023 0,4.99999 16.9024,8.97433 37.9023,8.97433 55,0 147.1162,25.99737 228.1162,63.99734 88.9999,41.99995 198.9657,144.07264 264.9656,244.07254 117.9999,178.9999 111.9091,328.9563 -15.0908,387.9563 -95.9999,44.9999 -195.883,21.0303 -289.8829,-67.9696 l -45.9742,-43.989 5.9661,85.0356 c 5,70.9999 9.9004,88.9842 27.9004,102.9842 21,17 86.9923,41.9334 135.9923,51.9334 11,2 27.1076,2.8045 45.6232,2.6482 z m 34.042,-138.4402 c 17.3125,-0.5937 34.4139,-3.6215 51.4138,-9.1215 47,-15.9999 87.9673,-56.0418 98.9673,-100.0418 37,-135.9998 -130.942,-389.0557 -320.9418,-485.0556 -65.9999,-32.99997 -169.0085,-63.99733 -216.0084,-63.99733 -22,0 -21.981,0.11467 7.0189,63.11461 37,81.99992 84.8806,240.99722 103.8806,344.99712 17,88.9999 45.0053,135.8727 113.0052,187.8726 57,43.5 110.7269,64.0131 162.6644,62.2319 z m -630.6534,-935.09664 161.0851,-27.07014 c 301.9997,-49.99995 438.9938,-106.00935 404.9939,-163.00929 -18,-30.99997 -151.0356,-88.93083 -263.0355,-115.9308 -117.9999,-28.99997 -186.9162,-40.99736 -366.916,-63.99733 -141.9999,-17.99999 -716,-26.06385 -869.9998,-12.06387 -353.99965,31.99997 -640.98181,90.94968 -779.98168,160.94961 -55.99994,27.99997 -75.10284,47.00154 -75.10284,74.00151 0,42.99996 110.97795,85.02246 324.97774,124.02242 132.99987,23.99998 145.00444,24.02772 196.00439,-3.97225 23.99998,-12.99999 68.03712,-29.04448 97.03709,-36.04447 49.99995,-11.99999 51.94029,-12.93141 51.94029,-46.93138 0,-50.99995 14.0311,-70.09524 67.03105,-87.09522 83.99991,-27.99997 203.06186,-39.98688 393.06166,-38.98688 190.9998,0 309.8862,11.98691 392.8861,38.98688 53,16.99998 67.0311,36.09527 67.0311,87.09522 0,32.99997 2.0799,34.90155 48.0798,45.90154 26,6.99999 69.9674,24.10417 98.9673,38.10415 z M 1679.4119,508.6257 c 9.2812,0.375 9.7954,-6.65863 7.5454,-27.65861 -5,-42.99996 -14.8766,-50.93976 -83.8766,-66.93974 -194.9998,-44.99996 -612.06247,-36.08111 -745.06234,16.91883 -22.99997,8.99999 -28.07583,18.04869 -28.07583,46.04866 0,31.99997 1.98711,34.98269 22.98709,28.9827 12.99999,-3 70.09604,-12.92094 128.09598,-21.92093 187.9998,-28.99997 523.9278,-18.07903 685.9276,21.92093 5.25,1.5 9.3649,2.52316 12.4587,2.64816 z M 143.48847,371.50958 c 6.74999,-0.51562 22.5345,-7.00733 40.53448,-17.50731 23.99998,-12.99999 75.98832,-34.99108 115.98828,-48.99107 142.99985,-48.99995 352.9497,-87.96066 619.94944,-116.96064 163.99983,-16.99998 726.08873,-16.99998 875.08853,0 322.9997,37.99997 514.0234,80.001 638.0233,143.00094 31.9999,15.99998 55.9403,24.97851 51.9403,18.97852 -12,-19.99998 -122.0953,-69.0099 -211.0952,-94.00988 C 1779.9181,116.02028 929.0268,120.02447 380.02734,266.02432 284.02744,291.0243 139.97899,353.0384 139.97899,370.03838 c 0,1.25 1.25948,1.64308 3.50948,1.4712 z" />
      <path
         id="path2"
         d="m 1795.0492,1456.9632 c -0.7931,-0.755 -1.59,-3.4317 -2.2811,-7.6503 1.7973,2.3912 2.3485,5.0011 2.2811,7.6503 z m -4.7378,-224.7998 c -1.58,-0.6046 -3.2848,-1.1367 -4.9132,-1.6184 -0.4192,-0.1367 -0.8087,-0.294 -1.2284,-0.4413 -0.3991,-8.3811 -0.6438,-14.0115 -0.8773,-20.3026 1.0522,-1.7479 2.0362,-3.5072 2.983,-5.2964 1.048,7.0104 2.1227,14.5165 3.685,25.4518 0.094,0.7023 0.2571,1.4953 0.3509,2.2069 z" />
      <path
         id="path3"
         d="m 1747.4958,955.13582 c -2.7832,-0.76538 -12.2083,-20.92094 -21.5833,-48.10834 -10.0483,-29.37183 -23.0285,-57.45773 -38.7798,-84.15281 0.3219,0.0733 0.7254,0.0944 1.0529,0.14712 1.6279,0.28398 3.2781,0.63415 4.9133,0.88272 1.9567,0.34725 3.9895,0.62662 5.9661,0.88272 0.1805,0.0268 0.3461,0.12356 0.5264,0.14712 29.1802,54.11705 55.8541,122.63102 48.4308,130.05435 -0.125,0.125 -0.3409,0.19815 -0.5264,0.14712 z" />
      <path
         d="m 2475,1464 c -96,-54 -133,-105 -156,-221 -11,-54 -36,-145 -55,-202 -19,-57 -32,-106 -30,-108 13,-13 41,21 53,63 40,146 73,279 73,296 0,29 53,91 107,127 50,33 98,40 150,20 l 28,-10 -22,22 c -29,29 -106,36 -148,13 z"
         id="path4" />
      <path
         d="m 2010,516 c 0,-3 18,-10 40,-16 22,-6 52,-21 67,-34 24,-21 26,-26 14,-40 -20,-24 -74,-47 -166,-72 -44,-13 -70,-23 -58,-23 31,-1 172,45 211,69 45,28 40,57 -13,87 -42,23 -95,39 -95,29 z"
         id="path5" />
      <path
         d="m 483,486 -28,-24 23,-25 c 13,-14 46,-35 73,-46 57,-25 169,-55 176,-47 3,2 -12,8 -33,12 -66,11 -168,55 -193,82 l -23,26 28,23 c 16,13 24,23 17,23 -7,0 -25,-11 -40,-24 z"
         id="path6" />
      <path
         d="m 1735,310 c -34,-6 -36,-7 -10,-8 17,0 48,3 70,7 33,7 35,9 10,8 -16,0 -48,-3 -70,-7 z"
         id="path7" />
      <path
         d="m 1228,283 c 68,-2 176,-2 240,0 64,1 9,3 -123,3 -132,0 -185,-2 -117,-3 z"
         id="path8" />
      <path
         d="m 2840,1611 c 139,-200 48,-534 -203,-748 -119,-101 -323,-187 -473,-200 -41,-3 -74,-9 -74,-14 0,-16 117,-14 190,3 376,90 651,393 651,716 0,109 -26,188 -83,246 l -39,41 z"
         id="path10" />
      <path
         d="m 2550,483 c 0,-6 5,-15 10,-18 18,-11 12,-115 -9,-149 -26,-41 -107,-89 -206,-121 -77,-25 -273,-67 -365,-79 -25,-3 -88,-11 -140,-18 -63,-8 -226,-13 -485,-13 -345,1 -409,3 -558,23 -283,38 -512,93 -622,151 -63,33 -75,37 -50,16 92,-76 354,-151 660,-189 554,-70 1227,-34 1578,83 104,34 164,68 206,116 27,31 31,43 31,95 0,48 -4,64 -25,87 -13,15 -25,23 -25,16 z"
         id="path11" />
    </g>
    <path
       id="text1"
       style="font-size:6px;fill:#ff6600;stroke-width:0.878506"
       d="m 5.359375,12.574219 -1.921875,3.830078 0.4824219,0.242187 0.7460937,-1.486328 0.5644532,-0.146484 0.4394531,2.509766 0.5683593,0.285156 -0.4921874,-2.953125 2.3535156,-0.90625 -0.5625,-0.28125 -1.6171875,0.638672 -0.515625,0.197265 c -0.1718216,0.06595 -0.3415192,0.13343 -0.5097657,0.201172 l 0.9472657,-1.888672 z m 16.675781,0.453125 c -0.05701,-2.91e-4 -0.114165,0.0034 -0.171875,0.01172 -0.227737,0.03085 -0.448199,0.132232 -0.662109,0.306641 -0.22011,0.179464 -0.371658,0.390914 -0.453125,0.632813 -0.07837,0.239369 -0.08382,0.494486 -0.01758,0.765625 0.06934,0.268609 0.215065,0.539687 0.4375,0.8125 0.224962,0.27591 0.464783,0.468754 0.720703,0.580078 0.256492,0.105696 0.515274,0.134492 0.773437,0.08398 0.261266,-0.05303 0.50853,-0.177038 0.744141,-0.369141 0.170508,-0.139019 0.306946,-0.271382 0.408203,-0.40039 0.103785,-0.125908 0.195736,-0.270251 0.277344,-0.429688 L 23.800779,14.66406 c -0.08471,0.161965 -0.176661,0.309299 -0.27539,0.441407 -0.09816,0.12648 -0.226659,0.253901 -0.384766,0.382812 -0.248011,0.202213 -0.501459,0.287821 -0.759766,0.25586 -0.257732,-0.03759 -0.504016,-0.195599 -0.740234,-0.472657 l 1.707031,-1.390625 -0.201172,-0.246093 c -0.184517,-0.226311 -0.387224,-0.389121 -0.607422,-0.488282 -0.164716,-0.07859 -0.33288,-0.118268 -0.503906,-0.11914 z m -2.568359,0.117187 -0.146485,0.07031 -0.002,0.002 c -0.01162,0.008 -0.02333,0.01595 -0.03516,0.02344 -0.01719,0.01067 -0.03465,0.02215 -0.05273,0.03125 -0.01682,0.0087 -0.03337,0.01604 -0.05078,0.02344 -0.01877,0.0088 -0.03903,0.01654 -0.05859,0.02344 -0.01866,0.0073 -0.03727,0.01639 -0.05664,0.02149 h -0.002 l -0.07227,0.03516 0.05273,0.111328 c 0.006,0.01147 0.01139,0.02369 0.01758,0.03516 0.0031,0.006 0.0067,0.01163 0.0098,0.01758 0.02262,0.04371 0.04485,0.08767 0.06445,0.132813 l 0.0039,0.0098 0.412109,0.849609 c 0.02619,0.05398 0.06655,0.124767 0.119141,0.214844 0.05445,0.08473 0.0948,0.150274 0.121094,0.195312 l -0.0332,0.01563 c -0.147586,-0.07511 -0.311983,-0.119881 -0.496093,-0.132812 -0.180512,-0.01468 -0.382343,0.03237 -0.605469,0.140625 -0.35988,0.174602 -0.588034,0.442667 -0.683594,0.804687 -0.09371,0.356678 -0.02025,0.784618 0.220703,1.28125 0.240952,0.496635 0.530991,0.817689 0.869141,0.964844 0.336404,0.143556 0.683089,0.127717 1.042969,-0.04687 0.226724,-0.109999 0.392093,-0.242225 0.49414,-0.398438 0.102048,-0.15621 0.166353,-0.316204 0.19336,-0.480468 l 0.02148,-0.01172 0.259766,0.355469 0.382812,-0.185547 z m 2.466797,0.34961 c 0.05138,-2.82e-4 0.103098,0.0058 0.154297,0.01953 0.202264,0.05185 0.391425,0.182343 0.566406,0.390625 l -1.269531,1.035156 c -0.160291,-0.240904 -0.235108,-0.468592 -0.22461,-0.683594 0.01107,-0.220627 0.113285,-0.411069 0.308594,-0.570312 0.155782,-0.127015 0.310702,-0.190563 0.464844,-0.191405 z M 8.3984375,13.841797 c -0.039557,4.7e-4 -0.077454,0.0074 -0.1152344,0.02344 -0.074189,0.02829 -0.1321146,0.09806 -0.171875,0.207032 -0.038389,0.105215 -0.03913,0.194404 -0.00195,0.267578 0.037171,0.07317 0.097018,0.124134 0.1796875,0.154297 0.075154,0.02742 0.1510028,0.02421 0.2265625,-0.0078 0.079318,-0.03067 0.139345,-0.09791 0.1777344,-0.203125 0.03976,-0.108973 0.038401,-0.198744 -0.00391,-0.269531 -0.037171,-0.07317 -0.094768,-0.12297 -0.1699219,-0.150391 -0.041334,-0.01508 -0.081536,-0.02195 -0.1210937,-0.02148 z m 8.2968745,0.636719 c -0.019,0.0016 -0.03736,0.0064 -0.05664,0.01172 -0.08483,0.0234 -0.148454,0.06874 -0.191406,0.138672 -0.04402,0.06608 -0.05037,0.155753 -0.01953,0.267578 0.02978,0.10797 0.07962,0.180718 0.152344,0.21875 0.07273,0.03803 0.151495,0.04488 0.236328,0.02149 0.07712,-0.02127 0.138689,-0.06678 0.181641,-0.136719 0.04681,-0.071 0.05517,-0.159609 0.02539,-0.267578 -0.03084,-0.111825 -0.08463,-0.185637 -0.160157,-0.21875 -0.05455,-0.02853 -0.110951,-0.03999 -0.167969,-0.03516 z m -5.605468,0.03711 -0.470703,4.535156 0.375,0.03906 0.15039,-0.394532 0.04102,0.0039 c 0.07825,0.136839 0.192184,0.259113 0.341797,0.367187 0.149612,0.108074 0.350919,0.175076 0.601562,0.201172 0.393871,0.04101 0.726364,-0.06513 0.998047,-0.318359 0.271684,-0.253227 0.435025,-0.654096 0.492188,-1.203125 0.05716,-0.549032 -0.02027,-0.973654 -0.234375,-1.273438 -0.209714,-0.303345 -0.514261,-0.476156 -0.91211,-0.517578 -0.250643,-0.0261 -0.460239,-7.2e-4 -0.628906,0.07422 -0.168667,0.07494 -0.306521,0.17504 -0.412109,0.300781 l -0.0293,-0.002 c 0.015,-0.06681 0.0309,-0.158477 0.04687,-0.273437 0.02038,-0.118527 0.0367,-0.245591 0.05078,-0.38086 l 0.115234,-1.103516 z m 4.302734,0.337891 c -0.108557,4.75e-4 -0.222505,0.0071 -0.339844,0.01953 -0.266496,0.02832 -0.497778,0.09754 -0.695312,0.207031 -0.193557,0.109067 -0.339482,0.250442 -0.4375,0.425781 -0.09844,0.171364 -0.135425,0.370934 -0.111328,0.597657 0.03509,0.330138 0.15416,0.580475 0.357422,0.751953 0.207236,0.171055 0.499088,0.303693 0.875,0.396484 0.268264,0.06401 0.478788,0.128955 0.630859,0.197266 0.155626,0.06391 0.268081,0.141347 0.337891,0.230469 0.06981,0.08912 0.112157,0.202583 0.126953,0.341796 0.0224,0.210813 -0.04143,0.386706 -0.191407,0.527344 -0.145996,0.140215 -0.379058,0.227899 -0.697265,0.261719 -0.226723,0.0241 -0.449636,0.02105 -0.669922,-0.0078 -0.216308,-0.0293 -0.398871,-0.06876 -0.548828,-0.117187 l 0.05469,0.513672 c 0.142003,0.04927 0.314823,0.08147 0.521485,0.0957 0.206662,0.01424 0.429313,0.0078 0.667969,-0.01758 0.465376,-0.04946 0.824125,-0.193612 1.076171,-0.433594 0.252049,-0.239982 0.358521,-0.547912 0.31836,-0.925781 -0.02367,-0.222746 -0.08819,-0.403568 -0.195313,-0.541016 -0.103148,-0.13787 -0.247588,-0.249168 -0.433594,-0.333984 -0.182448,-0.08922 -0.40375,-0.165617 -0.664062,-0.230469 -0.240001,-0.06299 -0.432902,-0.126299 -0.576172,-0.1875 -0.14327,-0.0612 -0.248549,-0.135488 -0.318359,-0.224609 -0.06981,-0.08912 -0.113688,-0.206416 -0.128907,-0.34961 -0.01987,-0.186947 0.03285,-0.343004 0.15625,-0.46875 0.122979,-0.129723 0.317486,-0.208004 0.583985,-0.236328 0.186947,-0.01987 0.367282,-0.01774 0.542969,0.0078 0.179662,0.02515 0.348018,0.06137 0.501953,0.109375 l 0.117187,-0.476563 c -0.166713,-0.05469 -0.349276,-0.09415 -0.548828,-0.117187 -0.09978,-0.01152 -0.203942,-0.01609 -0.3125,-0.01563 z M 7.8535156,14.904297 6.75,17.923828 7.2460938,18.105469 8.3496094,15.083984 Z m 11.4980464,0.300781 c 0.133335,-0.0047 0.252853,0.02735 0.359376,0.0957 0.211297,0.133118 0.405475,0.378403 0.580078,0.738281 l 0.04102,0.08594 c 0.164126,0.338287 0.223583,0.623261 0.179688,0.853516 -0.04204,0.224907 -0.215587,0.412137 -0.521485,0.560546 -0.259111,0.125714 -0.498607,0.123962 -0.720703,-0.0039 -0.218497,-0.129625 -0.41246,-0.367407 -0.580078,-0.71289 -0.165872,-0.341887 -0.235212,-0.643609 -0.207031,-0.90625 0.03003,-0.267989 0.174174,-0.463923 0.429687,-0.587891 0.160147,-0.0777 0.306121,-0.118377 0.439453,-0.123047 z m -10.3105464,0.121094 -0.828125,3.107422 0.5117188,0.136718 0.4414062,-1.658203 c 0.055564,-0.208728 0.1432934,-0.380667 0.265625,-0.513671 0.127226,-0.135844 0.2718028,-0.227396 0.4335938,-0.275391 0.1628196,-0.05186 0.3239416,-0.05779 0.4824216,-0.01563 0.05412,0.01441 0.10814,0.03347 0.164063,0.05664 0.05979,0.02419 0.114946,0.04925 0.162109,0.07422 l 0.1875,-0.453125 c -0.04716,-0.02497 -0.10528,-0.04793 -0.173828,-0.07031 -0.06365,-0.02522 -0.12366,-0.04511 -0.181641,-0.06055 -0.216459,-0.05762 -0.41992,-0.04635 -0.6113278,0.03516 -0.1914073,0.0815 -0.3600851,0.194567 -0.5058593,0.337891 l -0.023437,-0.0059 0.09375,-0.583984 z m 8.1660154,0.257812 -0.507812,0.140625 0.853515,3.09961 0.509766,-0.140625 z m -5.105469,0.792969 c 0.07288,-0.0047 0.151786,-0.0029 0.236329,0.0059 0.576879,0.06006 0.824321,0.49315 0.740234,1.300782 -0.04142,0.397847 -0.145367,0.694677 -0.310547,0.890625 -0.161201,0.196362 -0.385424,0.279824 -0.671875,0.25 -0.350107,-0.03645 -0.579702,-0.164215 -0.689453,-0.384766 -0.105358,-0.224115 -0.138656,-0.533866 -0.09766,-0.927734 l 0.0039,-0.02344 c 0.04266,-0.409782 0.139429,-0.705442 0.291016,-0.886719 0.11369,-0.135955 0.279404,-0.210425 0.498046,-0.224609 z" />
    <path
       id="path35"
       style="fill:none"
       d="m 2.8105469,15.765625 c 0,0 8.7043691,4.93524 14.1074221,4.382813 0.114228,-0.141213 0.231169,-0.279746 0.355469,-0.41211 0.05538,-0.05671 0.11252,-0.111484 0.171874,-0.164062 -0.0035,-2.29e-4 -0.0064,-0.0015 -0.0098,-0.002 -0.0087,-9.96e-4 -0.02595,0.0048 -0.02539,-0.0039 0.004,-0.06254 0.02633,-0.122214 0.03906,-0.183594 v -0.002 c 0.03007,-0.0018 0.05978,-0.004 0.08984,-0.0059 -0.0043,-0.02653 -0.01248,-0.0535 -0.0098,-0.08008 3.67e-4,-0.0036 0.0028,-0.0064 0.0039,-0.0098 -0.07801,-0.02342 -0.08686,-0.128349 0.03516,-0.185547 0.06444,-0.03021 0.03143,-0.01483 0.09961,-0.04687 0.01554,-0.0074 0.0313,-0.01413 0.04687,-0.02148 -0.09807,-0.01505 -0.109833,-0.138438 0.0293,-0.189453 0.02387,-0.0088 0.04927,-0.01306 0.07422,-0.01758 0.0073,-0.0142 0.0234,-0.02207 0.04687,-0.03516 0.0029,-0.0013 0.0069,-7.77e-4 0.0098,-0.002 l 0.002,-0.002 c 0.003,-0.0011 0.0048,-0.0029 0.0078,-0.0039 h 0.002 c 0.01744,-0.0117 0.03872,-0.02304 0.06641,-0.0293 0.001,-2.19e-4 0.0029,2.19e-4 0.0039,0 0.01345,-0.0037 0.02557,-0.0082 0.03906,-0.01172 0.01446,-0.0033 0.02839,-0.0089 0.04297,-0.01172 0.01812,-0.0038 0.03649,-0.0084 0.05469,-0.01172 0.02178,-0.0046 0.04441,-0.0083 0.06641,-0.01172 0.0039,-6.92e-4 0.0078,-0.0012 0.01172,-0.002 h 0.002 c 0.0039,-0.0017 0.0078,-0.0042 0.01172,-0.0059 0.0144,-0.0056 0.02886,-0.0092 0.04297,-0.01563 0.0115,-0.0045 0.01981,-0.0084 0.02734,-0.0098 0.0025,-4.6e-4 0.0056,5e-5 0.0078,0 0.01759,-4e-4 0.02491,0.01158 0.03125,0.03516 0.0078,2.13e-4 0.01409,1.06e-4 0.02148,0.002 0.009,0.0022 0.02234,0.002 0.02734,0.0098 0.0118,0.01829 0.01897,0.03878 0.02734,0.05859 0.09284,0.01945 0.09762,0.139595 -0.03906,0.189453 -0.07213,0.02632 -0.14207,0.05434 -0.21289,0.08398 -0.04969,0.02154 -0.09941,0.04352 -0.148438,0.06641 0.02382,0.01398 0.03606,0.04211 0.05469,0.0625 0.001,0.02208 0.0081,0.04276 0.0039,0.06445 -0.0074,0.03833 -0.03843,0.07219 -0.07031,0.09961 0.02578,0.01774 0.05307,0.01887 0.0625,0.04492 0.14121,0.02645 0.127165,0.183241 -0.04297,0.183594 -0.09254,1.73e-4 -0.184867,0.0012 -0.277344,0.002 5.64e-4,0.0091 2.38e-4,0.01829 0,0.02734 -3e-4,0.01071 -0.0034,0.02083 -0.0059,0.03125 -0.0098,0.04083 -0.02904,0.07945 -0.04687,0.117188 -0.02568,0.04938 -0.03262,0.06541 -0.0625,0.115234 -0.04321,0.07203 -0.09041,0.141739 -0.140626,0.208985 1.005283,-0.180515 1.870539,-0.578961 2.507813,-1.277344 z" />
  </g>
  <g
     inkscape:groupmode="layer"
     id="layer2"
     inkscape:label="line"
     transform="translate(-0.36132813,-4.2030396)">
    <path
       style="opacity:1;fill:none;stroke:#000000;stroke-width:0.0975259;stroke-dasharray:none"
       d="m 2.9612474,16.074756 c 0,0 11.1487606,7.365089 20.3346226,-0.209764"
       id="path37" />
  </g>
  <g
     inkscape:groupmode="layer"
     id="layer3"
     inkscape:label="line 1"
     transform="translate(-0.36132813,-4.2030396)">
    <path
       style="opacity:1;fill:#ffffff;stroke:#ffffff;stroke-width:0.1;stroke-dasharray:none"
       d="m 18.402344,17.503906 c 0.0013,0.0052 0.0012,0.01096 0.0039,0.01563 0.02112,0.03696 0.0779,0.09861 0.09766,0.121094 0.0359,0.04086 0.07311,0.08056 0.109375,0.121094 -0.0052,0.0091 -0.01136,0.01775 -0.01562,0.02734 -0.0053,0.01201 0.0061,0.06813 0,0.07422 -9.2e-4,9.21e-4 -0.003,-9.2e-4 -0.0039,0 -0.002,0.002 0.002,0.0098 0,0.01172 -9.21e-4,9.21e-4 -0.003,-9.21e-4 -0.0039,0 -9.21e-4,9.21e-4 9.2e-4,0.003 0,0.0039 -0.0019,0.0019 -0.0213,0.0072 -0.02344,0.0078 -0.01556,0.0041 -0.03121,0.008 -0.04687,0.01172 -0.01168,0.0028 -0.02377,0.004 -0.03516,0.0078 -0.06141,0.02047 -0.05628,0.01932 -0.09766,0.04297 -0.0069,0.0039 -0.08411,0.0448 -0.07813,0.05078 0.0039,0.0039 0.02298,-0.01136 0.02344,-0.01172 0.07742,-0.06193 -0.0396,0.02572 0.07422,-0.05859 0.05247,-0.03887 0.05937,-0.04974 0.121094,-0.07031 0.02547,-0.0085 0.0525,-0.01152 0.07813,-0.01953 0.005,-0.0016 -0.01047,7.36e-4 -0.01563,0 -0.04048,-0.0058 -0.08074,-0.01293 -0.121094,-0.01953 -0.07016,-0.01148 -0.232558,-0.03683 -0.289063,-0.08203 -0.01788,-0.0143 0.01886,-0.03675 0.02734,-0.03906 0.04376,-0.01193 0.115561,0.03597 0.140625,0.06641 0.01569,0.01905 0.03162,0.05455 0.03906,0.07813 0.006,0.01903 0.0099,0.04631 0.01172,0.06641 9.7e-4,0.01066 -9.91e-4,0.01563 0,0.01563 0.0013,0 -1.08e-4,-0.0026 0,-0.0039 0.0012,-0.01433 0.0026,-0.02865 0.0039,-0.04297 0.0052,-0.05723 0.0039,-0.02859 0.0039,-0.08594 0,-0.02214 -0.007,-0.04541 0,-0.06641 0.0026,-0.0079 0.011,0.01259 0.01563,0.01953 0.04267,0.06401 0.05661,0.139749 0.06641,0.214843 0.0015,0.01169 0.0029,0.02341 0.0039,0.03516 3.25e-4,0.0039 0.0028,0.009 0,0.01172 -0.0021,0.0021 -0.003,-0.0051 -0.0039,-0.0078 -0.003,-0.009 -0.0054,-0.01818 -0.0078,-0.02734 -0.0041,-0.01558 -0.0075,-0.03132 -0.01172,-0.04687 -0.02414,-0.08964 -0.02112,-0.05639 -0.04297,-0.1875 -0.0021,-0.01243 -0.0066,-0.03184 0.0078,-0.03906 0.01026,-0.0051 0.01639,0.01075 0.01953,0.01563 0.03182,0.0495 0.05071,0.104924 0.07031,0.160156 0.0069,0.0194 0.01326,0.03899 0.01953,0.05859 0.0041,0.01295 0.0081,0.02595 0.01172,0.03906 3.43e-4,0.0013 1.85e-4,0.0052 0,0.0039 -0.0044,-0.03079 -0.0043,-0.05031 -0.01563,-0.08203 -0.0072,-0.0203 -0.0182,-0.03908 -0.02734,-0.05859 -0.02858,-0.06097 -0.05333,-0.11093 -0.07813,-0.175781 -0.0011,-0.0029 -0.0061,-0.03292 -0.0039,-0.03516 0.0021,-0.0021 0.0024,0.0053 0.0039,0.0078 0.0024,0.004 0.0062,0.0073 0.0078,0.01172 0.01024,0.02731 -0.0024,0.01318 0.0078,0.02344"
       id="path56" />
    <path
       style="opacity:1;fill:#ffffff;stroke:#ffffff;stroke-width:0.1;stroke-dasharray:none"
       d="m 18.535156,18.027344 c -0.09346,-0.0406 -0.188308,-0.08387 -0.273437,-0.140625 -0.0024,-0.0016 0.0058,0.0018 0.0078,0.0039 0.01239,0.01239 0.02394,0.0256 0.03516,0.03906 0.02977,0.03572 0.106359,0.134075 0.132813,0.167969 0.01827,0.02341 0.03584,0.04737 0.05469,0.07031 0.01112,0.01354 0.02406,0.0255 0.03516,0.03906 8.24e-4,10e-4 10e-4,0.0047 0,0.0039 -0.05377,-0.04481 -0.09359,-0.104338 -0.144532,-0.152343 -0.02502,-0.02358 -0.05356,-0.04324 -0.08203,-0.0625 -0.01592,-0.01077 -0.03359,-0.01875 -0.05078,-0.02734 -0.0037,-0.0018 -0.01325,-0.0077 -0.01172,-0.0039 0.0068,0.0171 0.114138,0.125888 0.128906,0.136718 0.03818,0.028 0.0802,0.05036 0.121094,0.07422 0.0061,0.0035 0.02449,0.0029 0.01953,0.0078 -0.01249,0.01249 -0.04278,-0.02245 -0.07422,-0.03516 -0.04314,-0.01744 -0.08761,-0.03192 -0.132813,-0.04297 -0.02313,-0.0057 -0.06684,-0.0026 -0.05469,0.01563 0.0061,0.0092 0.01563,0.01563 0.02344,0.02344 0.01302,0.01302 0.02508,0.02708 0.03906,0.03906 0.02333,0.02 0.05138,0.03413 0.07422,0.05469 0.006,0.0054 0.01223,0.01146 0.0039,0.01563 -0.02594,0.01297 -0.07854,-0.0075 -0.101563,-0.01172 -0.03729,-0.0069 -0.07528,-0.01172 -0.113281,-0.01172 -0.0074,0 0.0095,0.01154 0.01563,0.01563 0.03464,0.02309 0.07115,0.04221 0.109375,0.05859 0.0064,0.0028 0.01288,0.0056 0.01953,0.0078 0.0012,4.12e-4 0.0052,0 0.0039,0 -0.01302,0 -0.02604,0 -0.03906,0 -0.0072,0 -0.02784,-0.0016 -0.03516,0.0039 -0.0068,0.0051 0.02255,0.05141 0.02734,0.05859 0.004,0.006 0.01259,0.01822 0.01172,0.01953 -0.0073,0.01098 -0.103176,-0.0065 -0.121094,-0.0039 -1.34e-4,1.9e-5 -0.0012,0.01183 0.0039,0.01563 0.0033,0.0025 0.0082,0.0017 0.01172,0.0039 0.01099,0.007 0.02026,0.01645 0.03125,0.02344 0.01572,0.01001 0.01588,0.0042 0.02734,0.01953 0.01,0.01327 0.02185,0.02344 0,0.02344"
       id="path57" />
    <path
       style="opacity:1;fill:#ffffff;stroke:#ffffff;stroke-width:0.1;stroke-dasharray:none"
       d="m 18.300781,18.472656 c -0.01905,0.0058 -0.02546,0.02818 -0.03906,0.03906 -0.0038,0.0031 -0.0334,0.016 -0.03906,0.01953 -0.0055,0.0035 -0.01021,0.0081 -0.01563,0.01172 -0.01761,0.01174 -0.04291,0.0156 -0.0625,0.02344 -0.0054,0.0022 -0.0099,0.0067 -0.01563,0.0078 -0.0049,9.77e-4 -0.04901,-0.0018 -0.05078,0 -9.21e-4,9.2e-4 9.21e-4,0.003 0,0.0039 -0.0022,0.0022 -0.01656,0 -0.01953,0"
       id="path58" />
    <path
       style="opacity:1;fill:#ffffff;stroke:#ffffff;stroke-width:0.1;stroke-dasharray:none"
       d="m 18.429687,18.394531 -0.300781,0.101563"
       id="path59" />
    <ellipse
       style="opacity:1;fill:#552200;stroke:none;stroke-width:0.0750784;stroke-dasharray:none"
       id="path60"
       cx="13.151939"
       cy="6.9584732"
       rx="11.395815"
       ry="1.970813" />
  </g>
</svg>
